<?xml version="1.0" encoding="us-ascii" standalone="no"?><svg xmlns="http://www.w3.org/2000/svg" xmlns:xlink="http://www.w3.org/1999/xlink" contentStyleType="text/css" height="857px" preserveAspectRatio="none" style="width:1476px;height:857px;background:#FFFFFF;" version="1.1" viewBox="0 0 1476 857" width="1476px" zoomAndPan="magnify"><defs/><g><rect fill="#FFFFFF" height="346.8672" style="stroke:#181818;stroke-width:1.0;" width="10" x="46.5" y="156.6641"/><rect fill="#FFFFFF" height="151.7578" style="stroke:#181818;stroke-width:1.0;" width="10" x="46.5" y="598.9375"/><rect fill="#FFFFFF" height="91.0547" style="stroke:#181818;stroke-width:1.0;" width="10" x="349.5" y="156.6641"/><rect fill="#FFFFFF" height="195.1094" style="stroke:#181818;stroke-width:1.0;" width="10" x="349.5" y="308.4219"/><rect fill="#FFFFFF" height="151.7578" style="stroke:#181818;stroke-width:1.0;" width="10" x="349.5" y="598.9375"/><rect fill="#FFFFFF" height="30.3516" style="stroke:#181818;stroke-width:1.0;" width="10" x="937.5" y="187.0156"/><rect fill="#FFFFFF" height="91.0547" style="stroke:#181818;stroke-width:1.0;" width="10" x="937.5" y="338.7734"/><rect fill="#FFFFFF" height="91.0547" style="stroke:#181818;stroke-width:1.0;" width="10" x="937.5" y="629.2891"/><rect fill="#FFFFFF" height="30.3516" style="stroke:#181818;stroke-width:1.0;" width="10" x="1412.5" y="278.0703"/><rect fill="#FFFFFF" height="30.3516" style="stroke:#181818;stroke-width:1.0;" width="10" x="1412.5" y="369.125"/><rect fill="#FFFFFF" height="30.3516" style="stroke:#181818;stroke-width:1.0;" width="10" x="1412.5" y="659.6406"/><rect fill="none" height="411.9219" style="stroke:#000000;stroke-width:1.5;" width="1460" x="10" y="99.6094"/><rect fill="none" height="233.1641" style="stroke:#000000;stroke-width:1.5;" width="1460" x="10" y="525.5313"/><line style="stroke:#181818;stroke-width:0.5;stroke-dasharray:5.0,5.0;" x1="51" x2="51" y1="82.6094" y2="775.6953"/><line style="stroke:#181818;stroke-width:0.5;stroke-dasharray:5.0,5.0;" x1="354.5" x2="354.5" y1="82.6094" y2="775.6953"/><line style="stroke:#181818;stroke-width:0.5;stroke-dasharray:5.0,5.0;" x1="942" x2="942" y1="82.6094" y2="775.6953"/><line style="stroke:#181818;stroke-width:0.5;stroke-dasharray:5.0,5.0;" x1="1417" x2="1417" y1="82.6094" y2="775.6953"/><text fill="#000000" font-family="sans-serif" font-size="14" lengthAdjust="spacing" textLength="57" x="20" y="79.5332">Utilizador</text><ellipse cx="51.5" cy="13.5" fill="#E2E2F0" rx="8" ry="8" style="stroke:#181818;stroke-width:0.5;"/><path d="M51.5,21.5 L51.5,48.5 M38.5,29.5 L64.5,29.5 M51.5,48.5 L38.5,63.5 M51.5,48.5 L64.5,63.5 " fill="none" style="stroke:#181818;stroke-width:0.5;"/><text fill="#000000" font-family="sans-serif" font-size="14" lengthAdjust="spacing" textLength="57" x="20" y="789.2285">Utilizador</text><ellipse cx="51.5" cy="800.8047" fill="#E2E2F0" rx="8" ry="8" style="stroke:#181818;stroke-width:0.5;"/><path d="M51.5,808.8047 L51.5,835.8047 M38.5,816.8047 L64.5,816.8047 M51.5,835.8047 L38.5,850.8047 M51.5,835.8047 L64.5,850.8047 " fill="none" style="stroke:#181818;stroke-width:0.5;"/><rect fill="#E2E2F0" height="31.6094" rx="2.5" ry="2.5" style="stroke:#181818;stroke-width:0.5;" width="72" x="318.5" y="50"/><text fill="#000000" font-family="sans-serif" font-size="14" lengthAdjust="spacing" textLength="58" x="325.5" y="71.5332">Frontend</text><rect fill="#E2E2F0" height="31.6094" rx="2.5" ry="2.5" style="stroke:#181818;stroke-width:0.5;" width="72" x="318.5" y="774.6953"/><text fill="#000000" font-family="sans-serif" font-size="14" lengthAdjust="spacing" textLength="58" x="325.5" y="796.2285">Frontend</text><rect fill="#E2E2F0" height="31.6094" rx="2.5" ry="2.5" style="stroke:#181818;stroke-width:0.5;" width="69" x="908" y="50"/><text fill="#000000" font-family="sans-serif" font-size="14" lengthAdjust="spacing" textLength="55" x="915" y="71.5332">Backend</text><rect fill="#E2E2F0" height="31.6094" rx="2.5" ry="2.5" style="stroke:#181818;stroke-width:0.5;" width="69" x="908" y="774.6953"/><text fill="#000000" font-family="sans-serif" font-size="14" lengthAdjust="spacing" textLength="55" x="915" y="796.2285">Backend</text><rect fill="#E2E2F0" height="31.6094" rx="2.5" ry="2.5" style="stroke:#181818;stroke-width:0.5;" width="85" x="1375" y="50"/><text fill="#000000" font-family="sans-serif" font-size="14" lengthAdjust="spacing" textLength="71" x="1382" y="71.5332">Google API</text><rect fill="#E2E2F0" height="31.6094" rx="2.5" ry="2.5" style="stroke:#181818;stroke-width:0.5;" width="85" x="1375" y="774.6953"/><text fill="#000000" font-family="sans-serif" font-size="14" lengthAdjust="spacing" textLength="71" x="1382" y="796.2285">Google API</text><rect fill="#FFFFFF" height="346.8672" style="stroke:#181818;stroke-width:1.0;" width="10" x="46.5" y="156.6641"/><rect fill="#FFFFFF" height="151.7578" style="stroke:#181818;stroke-width:1.0;" width="10" x="46.5" y="598.9375"/><rect fill="#FFFFFF" height="91.0547" style="stroke:#181818;stroke-width:1.0;" width="10" x="349.5" y="156.6641"/><rect fill="#FFFFFF" height="195.1094" style="stroke:#181818;stroke-width:1.0;" width="10" x="349.5" y="308.4219"/><rect fill="#FFFFFF" height="151.7578" style="stroke:#181818;stroke-width:1.0;" width="10" x="349.5" y="598.9375"/><rect fill="#FFFFFF" height="30.3516" style="stroke:#181818;stroke-width:1.0;" width="10" x="937.5" y="187.0156"/><rect fill="#FFFFFF" height="91.0547" style="stroke:#181818;stroke-width:1.0;" width="10" x="937.5" y="338.7734"/><rect fill="#FFFFFF" height="91.0547" style="stroke:#181818;stroke-width:1.0;" width="10" x="937.5" y="629.2891"/><rect fill="#FFFFFF" height="30.3516" style="stroke:#181818;stroke-width:1.0;" width="10" x="1412.5" y="278.0703"/><rect fill="#FFFFFF" height="30.3516" style="stroke:#181818;stroke-width:1.0;" width="10" x="1412.5" y="369.125"/><rect fill="#FFFFFF" height="30.3516" style="stroke:#181818;stroke-width:1.0;" width="10" x="1412.5" y="659.6406"/><path d="M10,99.6094 L184,99.6094 L184,107.9609 L174,117.9609 L10,117.9609 L10,99.6094 " fill="#EEEEEE" style="stroke:#000000;stroke-width:1.5;"/><rect fill="none" height="411.9219" style="stroke:#000000;stroke-width:1.5;" width="1460" x="10" y="99.6094"/><text fill="#000000" font-family="sans-serif" font-size="13" font-weight="bold" lengthAdjust="spacing" textLength="129" x="25" y="114.1045">"Processo de Login"</text><polygon fill="#181818" points="337.5,152.6641,347.5,156.6641,337.5,160.6641,341.5,156.6641" style="stroke:#181818;stroke-width:1.0;"/><line style="stroke:#181818;stroke-width:1.0;" x1="56.5" x2="343.5" y1="156.6641" y2="156.6641"/><text fill="#000000" font-family="sans-serif" font-size="13" lengthAdjust="spacing" textLength="77" x="63.5" y="135.4561">&lt;base-host&gt;/</text><text fill="#000000" font-family="sans-serif" font-size="13" lengthAdjust="spacing" textLength="136" x="63.5" y="151.8076">Inicia processo de login</text><polygon fill="#181818" points="925.5,183.0156,935.5,187.0156,925.5,191.0156,929.5,187.0156" style="stroke:#181818;stroke-width:1.0;"/><line style="stroke:#181818;stroke-width:1.0;" x1="359.5" x2="931.5" y1="187.0156" y2="187.0156"/><text fill="#000000" font-family="sans-serif" font-size="13" lengthAdjust="spacing" textLength="335" x="366.5" y="182.1592">Solicita URL para autenticar atrav&#233;s de uma conta Google</text><polygon fill="#181818" points="370.5,213.3672,360.5,217.3672,370.5,221.3672,366.5,217.3672" style="stroke:#181818;stroke-width:1.0;"/><line style="stroke:#181818;stroke-width:1.0;stroke-dasharray:2.0,2.0;" x1="364.5" x2="941.5" y1="217.3672" y2="217.3672"/><text fill="#000000" font-family="sans-serif" font-size="13" lengthAdjust="spacing" textLength="223" x="376.5" y="212.5107">URL para autenticar atrav&#233;s da Google</text><polygon fill="#181818" points="67.5,243.7188,57.5,247.7188,67.5,251.7188,63.5,247.7188" style="stroke:#181818;stroke-width:1.0;"/><line style="stroke:#181818;stroke-width:1.0;stroke-dasharray:2.0,2.0;" x1="61.5" x2="353.5" y1="247.7188" y2="247.7188"/><text fill="#000000" font-family="sans-serif" font-size="13" lengthAdjust="spacing" textLength="264" x="73.5" y="242.8623">redireciona utilizador para a p&#225;gina da Google</text><polygon fill="#181818" points="1400.5,274.0703,1410.5,278.0703,1400.5,282.0703,1404.5,278.0703" style="stroke:#181818;stroke-width:1.0;"/><line style="stroke:#181818;stroke-width:1.0;" x1="56.5" x2="1406.5" y1="278.0703" y2="278.0703"/><text fill="#000000" font-family="sans-serif" font-size="13" lengthAdjust="spacing" textLength="200" x="63.5" y="273.2139">Insere as suas credenciais Google</text><polygon fill="#181818" points="370.5,304.4219,360.5,308.4219,370.5,312.4219,366.5,308.4219" style="stroke:#181818;stroke-width:1.0;"/><line style="stroke:#181818;stroke-width:1.0;stroke-dasharray:2.0,2.0;" x1="364.5" x2="1416.5" y1="308.4219" y2="308.4219"/><text fill="#000000" font-family="sans-serif" font-size="13" lengthAdjust="spacing" textLength="205" x="376.5" y="303.5654">Retorna um c&#243;digo de autentica&#231;&#227;o</text><polygon fill="#181818" points="925.5,334.7734,935.5,338.7734,925.5,342.7734,929.5,338.7734" style="stroke:#181818;stroke-width:1.0;"/><line style="stroke:#181818;stroke-width:1.0;" x1="359.5" x2="931.5" y1="338.7734" y2="338.7734"/><text fill="#000000" font-family="sans-serif" font-size="13" lengthAdjust="spacing" textLength="374" x="366.5" y="333.917">Pedido para obter o token de autentica&#231;&#227;o associado ao OAuth2</text><polygon fill="#181818" points="1400.5,365.125,1410.5,369.125,1400.5,373.125,1404.5,369.125" style="stroke:#181818;stroke-width:1.0;"/><line style="stroke:#181818;stroke-width:1.0;" x1="947.5" x2="1406.5" y1="369.125" y2="369.125"/><text fill="#000000" font-family="sans-serif" font-size="13" lengthAdjust="spacing" textLength="446" x="954.5" y="364.2686">Pedido para gerar o token de autentica&#231;&#227;o atrav&#233;s do c&#243;digo de autentica&#231;&#227;o</text><polygon fill="#181818" points="958.5,395.4766,948.5,399.4766,958.5,403.4766,954.5,399.4766" style="stroke:#181818;stroke-width:1.0;"/><line style="stroke:#181818;stroke-width:1.0;stroke-dasharray:2.0,2.0;" x1="952.5" x2="1416.5" y1="399.4766" y2="399.4766"/><text fill="#000000" font-family="sans-serif" font-size="13" lengthAdjust="spacing" textLength="128" x="964.5" y="394.6201">token de autentica&#231;&#227;o</text><polygon fill="#181818" points="370.5,425.8281,360.5,429.8281,370.5,433.8281,366.5,429.8281" style="stroke:#181818;stroke-width:1.0;"/><line style="stroke:#181818;stroke-width:1.0;stroke-dasharray:2.0,2.0;" x1="364.5" x2="941.5" y1="429.8281" y2="429.8281"/><text fill="#000000" font-family="sans-serif" font-size="13" lengthAdjust="spacing" textLength="128" x="376.5" y="424.9717">token de autentica&#231;&#227;o</text><line style="stroke:#181818;stroke-width:1.0;" x1="359.5" x2="401.5" y1="460.1797" y2="460.1797"/><line style="stroke:#181818;stroke-width:1.0;" x1="401.5" x2="401.5" y1="460.1797" y2="473.1797"/><line style="stroke:#181818;stroke-width:1.0;" x1="360.5" x2="401.5" y1="473.1797" y2="473.1797"/><polygon fill="#181818" points="370.5,469.1797,360.5,473.1797,370.5,477.1797,366.5,473.1797" style="stroke:#181818;stroke-width:1.0;"/><text fill="#000000" font-family="sans-serif" font-size="13" lengthAdjust="spacing" textLength="185" x="366.5" y="455.3232">Guarda o token de autentica&#231;&#227;o</text><polygon fill="#181818" points="62.5,499.5313,52.5,503.5313,62.5,507.5313,58.5,503.5313" style="stroke:#181818;stroke-width:1.0;"/><line style="stroke:#181818;stroke-width:1.0;stroke-dasharray:2.0,2.0;" x1="56.5" x2="353.5" y1="503.5313" y2="503.5313"/><text fill="#000000" font-family="sans-serif" font-size="13" lengthAdjust="spacing" textLength="269" x="68.5" y="498.6748">Redireciona o utilizador para a p&#225;gina principal</text><path d="M10,525.5313 L498,525.5313 L498,550.2344 L488,560.2344 L10,560.2344 L10,525.5313 " fill="#EEEEEE" style="stroke:#000000;stroke-width:1.5;"/><rect fill="none" height="233.1641" style="stroke:#000000;stroke-width:1.5;" width="1460" x="10" y="525.5313"/><text fill="#000000" font-family="sans-serif" font-size="13" font-weight="bold" lengthAdjust="spacing" textLength="443" x="25" y="540.0264">"Casos de uso que necessitam de o utilizador estar logado no sistema</text><text fill="#000000" font-family="sans-serif" font-size="13" font-weight="bold" lengthAdjust="spacing" textLength="313" x="25" y="556.3779">Exemplo: ver os issues reportados de um evento"</text><polygon fill="#181818" points="337.5,594.9375,347.5,598.9375,337.5,602.9375,341.5,598.9375" style="stroke:#181818;stroke-width:1.0;"/><line style="stroke:#181818;stroke-width:1.0;" x1="56.5" x2="343.5" y1="598.9375" y2="598.9375"/><text fill="#000000" font-family="sans-serif" font-size="13" lengthAdjust="spacing" textLength="217" x="63.5" y="577.7295">&lt;base-host&gt;/eventIssues/:eventName</text><text fill="#000000" font-family="sans-serif" font-size="13" lengthAdjust="spacing" textLength="161" x="63.5" y="594.0811">Ver os issues de um evento</text><polygon fill="#181818" points="925.5,625.2891,935.5,629.2891,925.5,633.2891,929.5,629.2891" style="stroke:#181818;stroke-width:1.0;"/><line style="stroke:#181818;stroke-width:1.0;" x1="359.5" x2="931.5" y1="629.2891" y2="629.2891"/><text fill="#000000" font-family="sans-serif" font-size="13" lengthAdjust="spacing" textLength="559" x="366.5" y="624.4326">Obter issues do evento (envia um token de autentica&#231;&#227;o no pedido, gerado no processo de login)</text><polygon fill="#181818" points="1400.5,655.6406,1410.5,659.6406,1400.5,663.6406,1404.5,659.6406" style="stroke:#181818;stroke-width:1.0;"/><line style="stroke:#181818;stroke-width:1.0;" x1="947.5" x2="1406.5" y1="659.6406" y2="659.6406"/><text fill="#000000" font-family="sans-serif" font-size="13" lengthAdjust="spacing" textLength="286" x="954.5" y="654.7842">Valida o token de autentica&#231;&#227;o enviado no pedido</text><polygon fill="#181818" points="958.5,685.9922,948.5,689.9922,958.5,693.9922,954.5,689.9922" style="stroke:#181818;stroke-width:1.0;"/><line style="stroke:#181818;stroke-width:1.0;stroke-dasharray:2.0,2.0;" x1="952.5" x2="1416.5" y1="689.9922" y2="689.9922"/><text fill="#000000" font-family="sans-serif" font-size="13" lengthAdjust="spacing" textLength="43" x="964.5" y="685.1357">&#233; v&#225;lido</text><polygon fill="#181818" points="370.5,716.3438,360.5,720.3438,370.5,724.3438,366.5,720.3438" style="stroke:#181818;stroke-width:1.0;"/><line style="stroke:#181818;stroke-width:1.0;stroke-dasharray:2.0,2.0;" x1="364.5" x2="941.5" y1="720.3438" y2="720.3438"/><text fill="#000000" font-family="sans-serif" font-size="13" lengthAdjust="spacing" textLength="163" x="376.5" y="715.4873">Dados dos issues do evento</text><polygon fill="#181818" points="62.5,746.6953,52.5,750.6953,62.5,754.6953,58.5,750.6953" style="stroke:#181818;stroke-width:1.0;"/><line style="stroke:#181818;stroke-width:1.0;stroke-dasharray:2.0,2.0;" x1="56.5" x2="353.5" y1="750.6953" y2="750.6953"/><text fill="#000000" font-family="sans-serif" font-size="13" lengthAdjust="spacing" textLength="178" x="68.5" y="745.8389">Apresenta os issues do evento</text><!--SRC=[ZLHDQzj04BtxLmm-fL0JoD6KWFiL3A4nASd9bv4qKfPAE-f-YD9_4teeEVSdw8zrTYKxaXFBqK5eTsVUpdlpHfWwDd3dLAb-OoQVQC7FQZHEfQf6xU2hOUr8P-4a7vrynFH7Vv2C3kPNp4L9iDgiv-6qWDciCEnhc6yCfsGjGqPmpONIynd8us5n2JaiuKE2bXOFRDtb-LQljK0Yr8EaCYJ574oTQj2Hr3jQvd6P1yH44BzpAI0EuUxs6gHA1FJ2Huf5OUiCDksJ3SY-GaY5Aq9N_XWrYKj3pXjz0ce4q6SOofIXLB56yCzgTo1Gju_22WzIeoY5K5XhIuQ2ajRBAnKmqYACig-MMiHb0OjUqrkI7eTxAqZRVvagef3xqjk_xH-EAHaTO1pJT2DiCkwgvyIH0GR7OeQNm5ArPQbLmf7XPkNTmyLhoYQHx1Yw88EJq7l9-GIp0rvzKuxWlZKatvdsogEHrl6fQ0dtiH_FNk09DzH6wJ1HvM5pyiCDFvCvtC_O9xJSELf6vgSdq1J6HsQW2hkZAyawaLY6AZH8CrXb7LMurLz-KLMNl8GcTDU2ijQJ5LbgDaw2-v41QeGeJqnn35Z7xFDbN7p3YhRwVeGx17lpT2_X9fflXy4z09oHRbGq_37h2DKwEkrzT5b7_iL_vjsKK- -nL5DTXrX4DhXhmehj4pJjOxaBwdS_Tq8FPEAXHdtKgZPaAVouZWMEh1AzyXy0]--></g></svg>