<svg xmlns="http://www.w3.org/2000/svg" xmlns:xlink="http://www.w3.org/1999/xlink" contentStyleType="text/css" height="391px" preserveAspectRatio="none" style="width:401px;height:391px;background:#FFFFFF;" version="1.1" viewBox="0 0 401 391" width="401px" zoomAndPan="magnify"><defs/><g><rect fill="#FFFFFF" height="206.0371" style="stroke:#181818;stroke-width:1.0;" width="10" x="17.7793" y="93.6211"/><rect fill="#FFFFFF" height="156.4551" style="stroke:#181818;stroke-width:1.0;" width="10" x="124.041" y="134.2031"/><rect fill="#FFFFFF" height="93.873" style="stroke:#181818;stroke-width:1.0;" width="10" x="266.48" y="165.4941"/><rect fill="#FFFFFF" height="31.291" style="stroke:#181818;stroke-width:1.0;" width="10" x="361.9526" y="196.7852"/><line style="stroke:#181818;stroke-width:0.5;stroke-dasharray:5.0,5.0;" x1="22" x2="22" y1="83.6211" y2="308.6582"/><line style="stroke:#181818;stroke-width:0.5;stroke-dasharray:5.0,5.0;" x1="129.041" x2="129.041" y1="83.6211" y2="308.6582"/><line style="stroke:#181818;stroke-width:0.5;stroke-dasharray:5.0,5.0;" x1="270.918" x2="270.918" y1="83.6211" y2="308.6582"/><line style="stroke:#181818;stroke-width:0.5;stroke-dasharray:5.0,5.0;" x1="365.9873" x2="365.9873" y1="83.6211" y2="308.6582"/><text fill="#000000" font-family="sans-serif" font-size="14" lengthAdjust="spacing" textLength="29.5586" x="5" y="80.1074">User</text><ellipse cx="22.7793" cy="13.5" fill="#E2E2F0" rx="8" ry="8" style="stroke:#181818;stroke-width:0.5;"/><path d="M22.7793,21.5 L22.7793,48.5 M9.7793,29.5 L35.7793,29.5 M22.7793,48.5 L9.7793,63.5 M22.7793,48.5 L35.7793,63.5 " fill="none" style="stroke:#181818;stroke-width:0.5;"/><text fill="#000000" font-family="sans-serif" font-size="14" lengthAdjust="spacing" textLength="29.5586" x="5" y="322.7656">User</text><ellipse cx="22.7793" cy="334.7793" fill="#E2E2F0" rx="8" ry="8" style="stroke:#181818;stroke-width:0.5;"/><path d="M22.7793,342.7793 L22.7793,369.7793 M9.7793,350.7793 L35.7793,350.7793 M22.7793,369.7793 L9.7793,384.7793 M22.7793,369.7793 L35.7793,384.7793 " fill="none" style="stroke:#181818;stroke-width:0.5;"/><rect fill="#E2E2F0" height="32.6211" rx="2.5" ry="2.5" style="stroke:#181818;stroke-width:0.5;" width="28" x="115.041" y="50"/><text fill="#000000" font-family="sans-serif" font-size="14" lengthAdjust="spacing" textLength="14" x="122.041" y="72.1074">UI</text><rect fill="#E2E2F0" height="32.6211" rx="2.5" ry="2.5" style="stroke:#181818;stroke-width:0.5;" width="28" x="115.041" y="307.6582"/><text fill="#000000" font-family="sans-serif" font-size="14" lengthAdjust="spacing" textLength="14" x="122.041" y="329.7656">UI</text><rect fill="#E2E2F0" height="32.6211" rx="2.5" ry="2.5" style="stroke:#181818;stroke-width:0.5;" width="45.124" x="248.918" y="50"/><text fill="#000000" font-family="sans-serif" font-size="14" lengthAdjust="spacing" textLength="31.124" x="255.918" y="72.1074">Back</text><rect fill="#E2E2F0" height="32.6211" rx="2.5" ry="2.5" style="stroke:#181818;stroke-width:0.5;" width="45.124" x="248.918" y="307.6582"/><text fill="#000000" font-family="sans-serif" font-size="14" lengthAdjust="spacing" textLength="31.124" x="255.918" y="329.7656">Back</text><text fill="#000000" font-family="sans-serif" font-size="14" lengthAdjust="spacing" textLength="59.9307" x="333.9873" y="80.1074">Database</text><path d="M348.9526,29 C348.9526,19 366.9526,19 366.9526,19 C366.9526,19 384.9526,19 384.9526,29 L384.9526,55 C384.9526,65 366.9526,65 366.9526,65 C366.9526,65 348.9526,65 348.9526,55 L348.9526,29 " fill="#E2E2F0" style="stroke:#181818;stroke-width:1.5;"/><path d="M348.9526,29 C348.9526,39 366.9526,39 366.9526,39 C366.9526,39 384.9526,39 384.9526,29 " fill="none" style="stroke:#181818;stroke-width:1.5;"/><text fill="#000000" font-family="sans-serif" font-size="14" lengthAdjust="spacing" textLength="59.9307" x="333.9873" y="322.7656">Database</text><path d="M348.9526,336.2793 C348.9526,326.2793 366.9526,326.2793 366.9526,326.2793 C366.9526,326.2793 384.9526,326.2793 384.9526,336.2793 L384.9526,362.2793 C384.9526,372.2793 366.9526,372.2793 366.9526,372.2793 C366.9526,372.2793 348.9526,372.2793 348.9526,362.2793 L348.9526,336.2793 " fill="#E2E2F0" style="stroke:#181818;stroke-width:1.5;"/><path d="M348.9526,336.2793 C348.9526,346.2793 366.9526,346.2793 366.9526,346.2793 C366.9526,346.2793 384.9526,346.2793 384.9526,336.2793 " fill="none" style="stroke:#181818;stroke-width:1.5;"/><rect fill="#FFFFFF" height="206.0371" style="stroke:#181818;stroke-width:1.0;" width="10" x="17.7793" y="93.6211"/><rect fill="#FFFFFF" height="156.4551" style="stroke:#181818;stroke-width:1.0;" width="10" x="124.041" y="134.2031"/><rect fill="#FFFFFF" height="93.873" style="stroke:#181818;stroke-width:1.0;" width="10" x="266.48" y="165.4941"/><rect fill="#FFFFFF" height="31.291" style="stroke:#181818;stroke-width:1.0;" width="10" x="361.9526" y="196.7852"/><polygon fill="#181818" points="112.041,130.2031,122.041,134.2031,112.041,138.2031,116.041,134.2031" style="stroke:#181818;stroke-width:1.0;"/><line style="stroke:#181818;stroke-width:1.0;" x1="27.7793" x2="118.041" y1="134.2031" y2="134.2031"/><text fill="#000000" font-family="sans-serif" font-size="13" lengthAdjust="spacing" textLength="41.9136" x="34.7793" y="111.6494">/events</text><text fill="#000000" font-family="sans-serif" font-size="13" lengthAdjust="spacing" textLength="39.7427" x="34.7793" y="128.9404">Events</text><polygon fill="#181818" points="254.48,161.4941,264.48,165.4941,254.48,169.4941,258.48,165.4941" style="stroke:#181818;stroke-width:1.0;"/><line style="stroke:#181818;stroke-width:1.0;" x1="134.041" x2="260.48" y1="165.4941" y2="165.4941"/><text fill="#000000" font-family="sans-serif" font-size="13" lengthAdjust="spacing" textLength="113.439" x="141.041" y="160.2314">[GET] public/events</text><polygon fill="#181818" points="349.9526,192.7852,359.9526,196.7852,349.9526,200.7852,353.9526,196.7852" style="stroke:#181818;stroke-width:1.0;"/><line style="stroke:#181818;stroke-width:1.0;" x1="276.48" x2="355.9526" y1="196.7852" y2="196.7852"/><text fill="#000000" font-family="sans-serif" font-size="13" lengthAdjust="spacing" textLength="66.4727" x="283.48" y="191.5225">getEvents()</text><polygon fill="#181818" points="287.48,224.0762,277.48,228.0762,287.48,232.0762,283.48,228.0762" style="stroke:#181818;stroke-width:1.0;"/><line style="stroke:#181818;stroke-width:1.0;stroke-dasharray:2.0,2.0;" x1="281.48" x2="365.9526" y1="228.0762" y2="228.0762"/><text fill="#000000" font-family="sans-serif" font-size="13" lengthAdjust="spacing" textLength="38.3018" x="293.48" y="222.8135">events</text><polygon fill="#181818" points="145.041,255.3672,135.041,259.3672,145.041,263.3672,141.041,259.3672" style="stroke:#181818;stroke-width:1.0;"/><line style="stroke:#181818;stroke-width:1.0;stroke-dasharray:2.0,2.0;" x1="139.041" x2="270.48" y1="259.3672" y2="259.3672"/><text fill="#000000" font-family="sans-serif" font-size="13" lengthAdjust="spacing" textLength="70.8271" x="151.041" y="254.1045">200 : events</text><polygon fill="#181818" points="38.7793,286.6582,28.7793,290.6582,38.7793,294.6582,34.7793,290.6582" style="stroke:#181818;stroke-width:1.0;"/><line style="stroke:#181818;stroke-width:1.0;stroke-dasharray:2.0,2.0;" x1="32.7793" x2="128.041" y1="290.6582" y2="290.6582"/><text fill="#000000" font-family="sans-serif" font-size="13" lengthAdjust="spacing" textLength="72.2617" x="44.7793" y="285.3955">show events</text><!--SRC=[ROyz3u8m48Rt_eeRTI0IHmO78p7kCgd3zIFQQ83G0_- -Toq4J5XwpVMvf- -XeQQ3AhWEC43FLRNOaJU-nPgWkiIs_siUqRobhRagYuGQWuFJTE4NgvLIQCWFI2vPbPoG7LW61UpSu6eAzxgCTGbxHhs0ecVqTYwl3sXx_V5c75lWCOEAA8zONS3JKP9kjZF6WQo6RBQE8kkMoEYPGkxpV9LCVqf88MMj0iAh-QwWiiqF]--></g></svg>