<?xml version="1.0" encoding="us-ascii" standalone="no"?><svg xmlns="http://www.w3.org/2000/svg" xmlns:xlink="http://www.w3.org/1999/xlink" contentStyleType="text/css" height="958.8px" preserveAspectRatio="none" style="width:998px;height:958px;background:#FFFFFF;" version="1.1" viewBox="0 0 998 958" width="998.4px" zoomAndPan="magnify"><defs/><g><!--cluster User Aggregate--><g id="cluster_User Aggregate"><path d="M5.1,771.6082 L71.7,771.6082 A2.25,2.25 0 0 1 73.2,773.1082 L77.4,786.3809 L470.7,786.3809 A1.5,1.5 0 0 1 472.2,787.8809 L472.2,953.1082 A1.5,1.5 0 0 1 470.7,954.6082 L5.1,954.6082 A1.5,1.5 0 0 1 3.6,953.1082 L3.6,773.1082 A1.5,1.5 0 0 1 5.1,771.6082 " fill="none" style="stroke:#000000;stroke-width:0.8999999999999999;"/><line style="stroke:#000000;stroke-width:0.8999999999999999;" x1="3.6" x2="77.4" y1="786.3809" y2="786.3809"/><text fill="#000000" font-family="sans-serif" font-size="8.4" font-weight="bold" lengthAdjust="spacing" textLength="66" x="6" y="781.8727">User Aggregate</text></g><!--cluster Citizen Profile Aggregate--><g id="cluster_Citizen Profile Aggregate"><path d="M488.1,659.4082 L593.7,659.4082 A2.25,2.25 0 0 1 595.2,660.9082 L599.4,674.1809 L599.7,674.1809 A1.5,1.5 0 0 1 601.2,675.6809 L601.2,847.5082 A1.5,1.5 0 0 1 599.7,849.0082 L488.1,849.0082 A1.5,1.5 0 0 1 486.6,847.5082 L486.6,660.9082 A1.5,1.5 0 0 1 488.1,659.4082 " fill="none" style="stroke:#000000;stroke-width:0.8999999999999999;"/><line style="stroke:#000000;stroke-width:0.8999999999999999;" x1="486.6" x2="599.4" y1="674.1809" y2="674.1809"/><text fill="#000000" font-family="sans-serif" font-size="8.4" font-weight="bold" lengthAdjust="spacing" textLength="105" x="489" y="669.6727">Citizen Profile Aggregate</text></g><!--cluster Praise Aggregate--><g id="cluster_Praise Aggregate"><path d="M330.3,3.6082 L403.5,3.6082 A2.25,2.25 0 0 1 405,5.1082 L409.2,18.3809 L409.5,18.3809 A1.5,1.5 0 0 1 411,19.8809 L411,74.1082 A1.5,1.5 0 0 1 409.5,75.6082 L330.3,75.6082 A1.5,1.5 0 0 1 328.8,74.1082 L328.8,5.1082 A1.5,1.5 0 0 1 330.3,3.6082 " fill="none" style="stroke:#000000;stroke-width:0.8999999999999999;"/><line style="stroke:#000000;stroke-width:0.8999999999999999;" x1="328.8" x2="409.2" y1="18.3809" y2="18.3809"/><text fill="#000000" font-family="sans-serif" font-size="8.4" font-weight="bold" lengthAdjust="spacing" textLength="72.6" x="331.2" y="13.8727">Praise Aggregate</text></g><!--cluster Issue Aggregate--><g id="cluster_Issue Aggregate"><path d="M86.1,180.6082 L155.7,180.6082 A2.25,2.25 0 0 1 157.2,182.1082 L161.4,195.3809 L425.7,195.3809 A1.5,1.5 0 0 1 427.2,196.8809 L427.2,470.1082 A1.5,1.5 0 0 1 425.7,471.6082 L86.1,471.6082 A1.5,1.5 0 0 1 84.6,470.1082 L84.6,182.1082 A1.5,1.5 0 0 1 86.1,180.6082 " fill="none" style="stroke:#000000;stroke-width:0.8999999999999999;"/><line style="stroke:#000000;stroke-width:0.8999999999999999;" x1="84.6" x2="161.4" y1="195.3809" y2="195.3809"/><text fill="#000000" font-family="sans-serif" font-size="8.4" font-weight="bold" lengthAdjust="spacing" textLength="69" x="87" y="190.8727">Issue Aggregate</text></g><!--cluster Event Aggregate--><g id="cluster_Event Aggregate"><path d="M638.7,502.2082 L710.1,502.2082 A2.25,2.25 0 0 1 711.6,503.7082 L715.8,516.9809 L750.9,516.9809 A1.5,1.5 0 0 1 752.4,518.4809 L752.4,864.3082 A1.5,1.5 0 0 1 750.9,865.8082 L638.7,865.8082 A1.5,1.5 0 0 1 637.2,864.3082 L637.2,503.7082 A1.5,1.5 0 0 1 638.7,502.2082 " fill="none" style="stroke:#000000;stroke-width:0.8999999999999999;"/><line style="stroke:#000000;stroke-width:0.8999999999999999;" x1="637.2" x2="715.8" y1="516.9809" y2="516.9809"/><text fill="#000000" font-family="sans-serif" font-size="8.4" font-weight="bold" lengthAdjust="spacing" textLength="70.8" x="639.6" y="512.4727">Event Aggregate</text></g><!--class User--><g id="elem_User"><rect codeLine="3" fill="#F1F1F1" height="62.318" id="User" rx="1.5" ry="1.5" style="stroke:#181818;stroke-width:0.3;" width="78" x="234" y="793.8082"/><ellipse cx="261.75" cy="803.4082" fill="#ADD1B2" rx="6.6" ry="6.6" style="stroke:#181818;stroke-width:0.6;"/><path d="M263.4094,800.9332 Q263.5031,800.802 263.6156,800.7363 Q263.7281,800.6707 263.8594,800.6707 Q264.0844,800.6707 264.225,800.8301 Q264.3656,800.9801 264.3656,801.3457 L264.3656,802.2176 Q264.3656,802.5832 264.225,802.7426 Q264.0844,802.902 263.8594,802.902 Q263.6531,802.902 263.5313,802.7801 Q263.4094,802.6676 263.3438,802.3582 Q263.3156,802.1426 263.2031,802.0301 Q263.0062,801.8051 262.6406,801.6738 Q262.275,801.5426 261.9,801.5426 Q261.4406,801.5426 261.0563,801.7395 Q260.6813,801.9363 260.3812,802.3863 Q260.0906,802.8363 260.0906,803.4551 L260.0906,804.1113 Q260.0906,804.852 260.625,805.3488 Q261.1594,805.8363 262.1156,805.8363 Q262.6781,805.8363 263.0719,805.6863 Q263.3063,805.5926 263.5594,805.3301 Q263.7188,805.1707 263.8031,805.1238 Q263.8969,805.077 264.0188,805.077 Q264.2156,805.077 264.3656,805.2363 Q264.525,805.3863 264.525,805.5926 Q264.525,805.7988 264.3187,806.0426 Q264.0188,806.3895 263.5406,806.5863 Q262.8938,806.8582 262.1156,806.8582 Q261.2063,806.8582 260.4844,806.4832 Q259.8938,806.1832 259.4813,805.5457 Q259.0687,804.8988 259.0687,804.1301 L259.0687,803.4363 Q259.0687,802.6395 259.4344,801.9551 Q259.8094,801.2613 260.4656,800.8957 Q261.1219,800.5207 261.8625,800.5207 Q262.3031,800.5207 262.6875,800.6238 Q263.0813,800.7176 263.4094,800.9332 Z " fill="#000000"/><text fill="#000000" font-family="sans-serif" font-size="8.4" lengthAdjust="spacing" textLength="17.4" x="274.05" y="806.8863">User</text><line style="stroke:#181818;stroke-width:0.3;" x1="234.6" x2="311.4" y1="813.0082" y2="813.0082"/><rect fill="none" height="3.6" style="stroke:#C82930;stroke-width:0.6;" width="3.6" x="238.8" y="820.0945"/><text fill="#000000" font-family="sans-serif" font-size="8.4" lengthAdjust="spacing" textLength="62.4" x="246" y="824.4727">String username</text><rect fill="none" height="3.6" style="stroke:#C82930;stroke-width:0.6;" width="3.6" x="238.8" y="831.2672"/><text fill="#000000" font-family="sans-serif" font-size="8.4" lengthAdjust="spacing" textLength="60.6" x="246" y="835.6453">String password</text><rect fill="none" height="3.6" style="stroke:#C82930;stroke-width:0.6;" width="3.6" x="238.8" y="842.4398"/><text fill="#000000" font-family="sans-serif" font-size="8.4" lengthAdjust="spacing" textLength="44.4" x="246" y="846.818">String email</text><line style="stroke:#181818;stroke-width:0.3;" x1="234.6" x2="311.4" y1="851.3262" y2="851.3262"/></g><!--class Admin--><g id="elem_Admin"><rect codeLine="9" fill="#F1F1F1" height="28.8" id="Admin" rx="1.5" ry="1.5" style="stroke:#181818;stroke-width:0.3;" width="42.6" x="78.9" y="905.1082"/><ellipse cx="87.9" cy="914.7082" fill="#ADD1B2" rx="6.6" ry="6.6" style="stroke:#181818;stroke-width:0.6;"/><path d="M89.5594,912.2332 Q89.6531,912.102 89.7656,912.0363 Q89.8781,911.9707 90.0094,911.9707 Q90.2344,911.9707 90.375,912.1301 Q90.5156,912.2801 90.5156,912.6457 L90.5156,913.5176 Q90.5156,913.8832 90.375,914.0426 Q90.2344,914.202 90.0094,914.202 Q89.8031,914.202 89.6812,914.0801 Q89.5594,913.9676 89.4937,913.6582 Q89.4656,913.4426 89.3531,913.3301 Q89.1563,913.1051 88.7906,912.9738 Q88.425,912.8426 88.05,912.8426 Q87.5906,912.8426 87.2063,913.0395 Q86.8313,913.2363 86.5313,913.6863 Q86.2406,914.1363 86.2406,914.7551 L86.2406,915.4113 Q86.2406,916.152 86.775,916.6488 Q87.3094,917.1363 88.2656,917.1363 Q88.8281,917.1363 89.2219,916.9863 Q89.4563,916.8926 89.7094,916.6301 Q89.8687,916.4707 89.9531,916.4238 Q90.0469,916.377 90.1688,916.377 Q90.3656,916.377 90.5156,916.5363 Q90.675,916.6863 90.675,916.8926 Q90.675,917.0988 90.4688,917.3426 Q90.1688,917.6895 89.6906,917.8863 Q89.0438,918.1582 88.2656,918.1582 Q87.3563,918.1582 86.6344,917.7832 Q86.0438,917.4832 85.6313,916.8457 Q85.2188,916.1988 85.2188,915.4301 L85.2188,914.7363 Q85.2188,913.9395 85.5844,913.2551 Q85.9594,912.5613 86.6156,912.1957 Q87.2719,911.8207 88.0125,911.8207 Q88.4531,911.8207 88.8375,911.9238 Q89.2313,912.0176 89.5594,912.2332 Z " fill="#000000"/><text fill="#000000" font-family="sans-serif" font-size="8.4" lengthAdjust="spacing" textLength="23.4" x="96.3" y="918.1863">Admin</text><line style="stroke:#181818;stroke-width:0.3;" x1="79.5" x2="120.9" y1="924.3082" y2="924.3082"/><line style="stroke:#181818;stroke-width:0.3;" x1="79.5" x2="120.9" y1="929.1082" y2="929.1082"/></g><!--class Citizen--><g id="elem_Citizen"><rect codeLine="13" fill="#F1F1F1" height="28.8" id="Citizen" rx="1.5" ry="1.5" style="stroke:#181818;stroke-width:0.3;" width="44.4" x="13.2" y="905.1082"/><ellipse cx="22.2" cy="914.7082" fill="#ADD1B2" rx="6.6" ry="6.6" style="stroke:#181818;stroke-width:0.6;"/><path d="M23.8594,912.2332 Q23.9531,912.102 24.0656,912.0363 Q24.1781,911.9707 24.3094,911.9707 Q24.5344,911.9707 24.675,912.1301 Q24.8156,912.2801 24.8156,912.6457 L24.8156,913.5176 Q24.8156,913.8832 24.675,914.0426 Q24.5344,914.202 24.3094,914.202 Q24.1031,914.202 23.9813,914.0801 Q23.8594,913.9676 23.7938,913.6582 Q23.7656,913.4426 23.6531,913.3301 Q23.4563,913.1051 23.0906,912.9738 Q22.725,912.8426 22.35,912.8426 Q21.8906,912.8426 21.5062,913.0395 Q21.1312,913.2363 20.8313,913.6863 Q20.5406,914.1363 20.5406,914.7551 L20.5406,915.4113 Q20.5406,916.152 21.075,916.6488 Q21.6094,917.1363 22.5656,917.1363 Q23.1281,917.1363 23.5219,916.9863 Q23.7562,916.8926 24.0094,916.6301 Q24.1688,916.4707 24.2531,916.4238 Q24.3469,916.377 24.4688,916.377 Q24.6656,916.377 24.8156,916.5363 Q24.975,916.6863 24.975,916.8926 Q24.975,917.0988 24.7688,917.3426 Q24.4688,917.6895 23.9906,917.8863 Q23.3438,918.1582 22.5656,918.1582 Q21.6563,918.1582 20.9344,917.7832 Q20.3438,917.4832 19.9313,916.8457 Q19.5188,916.1988 19.5188,915.4301 L19.5188,914.7363 Q19.5188,913.9395 19.8844,913.2551 Q20.2594,912.5613 20.9156,912.1957 Q21.5719,911.8207 22.3125,911.8207 Q22.7531,911.8207 23.1375,911.9238 Q23.5313,912.0176 23.8594,912.2332 Z " fill="#000000"/><text fill="#000000" font-family="sans-serif" font-size="8.4" lengthAdjust="spacing" textLength="25.2" x="30.6" y="918.1863">Citizen</text><line style="stroke:#181818;stroke-width:0.3;" x1="13.8" x2="57" y1="924.3082" y2="924.3082"/><line style="stroke:#181818;stroke-width:0.3;" x1="13.8" x2="57" y1="929.1082" y2="929.1082"/></g><!--class EventManager--><g id="elem_EventManager"><rect codeLine="18" fill="#F1F1F1" height="51.1453" id="EventManager" rx="1.5" ry="1.5" style="stroke:#181818;stroke-width:0.3;" width="149.4" x="142.5" y="894.0082"/><ellipse cx="187.05" cy="903.6082" fill="#ADD1B2" rx="6.6" ry="6.6" style="stroke:#181818;stroke-width:0.6;"/><path d="M188.7094,901.1332 Q188.8031,901.002 188.9156,900.9363 Q189.0281,900.8707 189.1594,900.8707 Q189.3844,900.8707 189.525,901.0301 Q189.6656,901.1801 189.6656,901.5457 L189.6656,902.4176 Q189.6656,902.7832 189.525,902.9426 Q189.3844,903.102 189.1594,903.102 Q188.9531,903.102 188.8312,902.9801 Q188.7094,902.8676 188.6437,902.5582 Q188.6156,902.3426 188.5031,902.2301 Q188.3063,902.0051 187.9406,901.8738 Q187.575,901.7426 187.2,901.7426 Q186.7406,901.7426 186.3563,901.9395 Q185.9813,902.1363 185.6813,902.5863 Q185.3906,903.0363 185.3906,903.6551 L185.3906,904.3113 Q185.3906,905.052 185.925,905.5488 Q186.4594,906.0363 187.4156,906.0363 Q187.9781,906.0363 188.3719,905.8863 Q188.6063,905.7926 188.8594,905.5301 Q189.0187,905.3707 189.1031,905.3238 Q189.1969,905.277 189.3188,905.277 Q189.5156,905.277 189.6656,905.4363 Q189.825,905.5863 189.825,905.7926 Q189.825,905.9988 189.6188,906.2426 Q189.3188,906.5895 188.8406,906.7863 Q188.1938,907.0582 187.4156,907.0582 Q186.5063,907.0582 185.7844,906.6832 Q185.1938,906.3832 184.7813,905.7457 Q184.3688,905.0988 184.3688,904.3301 L184.3688,903.6363 Q184.3688,902.8395 184.7344,902.1551 Q185.1094,901.4613 185.7656,901.0957 Q186.4219,900.7207 187.1625,900.7207 Q187.6031,900.7207 187.9875,900.8238 Q188.3813,900.9176 188.7094,901.1332 Z " fill="#000000"/><text fill="#000000" font-family="sans-serif" font-size="8.4" lengthAdjust="spacing" textLength="55.2" x="199.35" y="907.0863">EventManager</text><line style="stroke:#181818;stroke-width:0.3;" x1="143.1" x2="291.3" y1="913.2082" y2="913.2082"/><rect fill="none" height="3.6" style="stroke:#C82930;stroke-width:0.6;" width="3.6" x="147.3" y="920.2945"/><text fill="#000000" font-family="sans-serif" font-size="8.4" lengthAdjust="spacing" textLength="69" x="154.5" y="924.6727">boolean approved</text><rect fill="none" height="3.6" style="stroke:#C82930;stroke-width:0.6;" width="3.6" x="147.3" y="931.4672"/><text fill="#000000" font-family="sans-serif" font-size="8.4" lengthAdjust="spacing" textLength="133.8" x="154.5" y="935.8453">String accountApprovalRequestInfo</text><line style="stroke:#181818;stroke-width:0.3;" x1="143.1" x2="291.3" y1="940.3535" y2="940.3535"/></g><!--class EventWorker--><g id="elem_EventWorker"><rect codeLine="23" fill="#F1F1F1" height="51.1453" id="EventWorker" rx="1.5" ry="1.5" style="stroke:#181818;stroke-width:0.3;" width="149.4" x="312.9" y="894.0082"/><ellipse cx="360.45" cy="903.6082" fill="#ADD1B2" rx="6.6" ry="6.6" style="stroke:#181818;stroke-width:0.6;"/><path d="M362.1094,901.1332 Q362.2031,901.002 362.3156,900.9363 Q362.4281,900.8707 362.5594,900.8707 Q362.7844,900.8707 362.925,901.0301 Q363.0656,901.1801 363.0656,901.5457 L363.0656,902.4176 Q363.0656,902.7832 362.925,902.9426 Q362.7844,903.102 362.5594,903.102 Q362.3531,903.102 362.2313,902.9801 Q362.1094,902.8676 362.0438,902.5582 Q362.0156,902.3426 361.9031,902.2301 Q361.7063,902.0051 361.3406,901.8738 Q360.975,901.7426 360.6,901.7426 Q360.1406,901.7426 359.7562,901.9395 Q359.3812,902.1363 359.0813,902.5863 Q358.7906,903.0363 358.7906,903.6551 L358.7906,904.3113 Q358.7906,905.052 359.325,905.5488 Q359.8594,906.0363 360.8156,906.0363 Q361.3781,906.0363 361.7719,905.8863 Q362.0062,905.7926 362.2594,905.5301 Q362.4188,905.3707 362.5031,905.3238 Q362.5969,905.277 362.7188,905.277 Q362.9156,905.277 363.0656,905.4363 Q363.225,905.5863 363.225,905.7926 Q363.225,905.9988 363.0188,906.2426 Q362.7188,906.5895 362.2406,906.7863 Q361.5938,907.0582 360.8156,907.0582 Q359.9063,907.0582 359.1844,906.6832 Q358.5938,906.3832 358.1813,905.7457 Q357.7688,905.0988 357.7688,904.3301 L357.7688,903.6363 Q357.7688,902.8395 358.1344,902.1551 Q358.5094,901.4613 359.1656,901.0957 Q359.8219,900.7207 360.5625,900.7207 Q361.0031,900.7207 361.3875,900.8238 Q361.7813,900.9176 362.1094,901.1332 Z " fill="#000000"/><text fill="#000000" font-family="sans-serif" font-size="8.4" lengthAdjust="spacing" textLength="49.2" x="372.75" y="907.0863">EventWorker</text><line style="stroke:#181818;stroke-width:0.3;" x1="313.5" x2="461.7" y1="913.2082" y2="913.2082"/><rect fill="none" height="3.6" style="stroke:#C82930;stroke-width:0.6;" width="3.6" x="317.7" y="920.2945"/><text fill="#000000" font-family="sans-serif" font-size="8.4" lengthAdjust="spacing" textLength="69" x="324.9" y="924.6727">boolean approved</text><rect fill="none" height="3.6" style="stroke:#C82930;stroke-width:0.6;" width="3.6" x="317.7" y="931.4672"/><text fill="#000000" font-family="sans-serif" font-size="8.4" lengthAdjust="spacing" textLength="133.8" x="324.9" y="935.8453">String accountApprovalRequestInfo</text><line style="stroke:#181818;stroke-width:0.3;" x1="313.5" x2="461.7" y1="940.3535" y2="940.3535"/></g><!--class CitizenProfile--><g id="elem_CitizenProfile"><rect codeLine="34" fill="#F1F1F1" height="51.1453" id="CitizenProfile" rx="1.5" ry="1.5" style="stroke:#181818;stroke-width:0.3;" width="84" x="496.2" y="681.6082"/><ellipse cx="512.22" cy="691.2082" fill="#ADD1B2" rx="6.6" ry="6.6" style="stroke:#181818;stroke-width:0.6;"/><path d="M513.8794,688.7332 Q513.9731,688.602 514.0856,688.5363 Q514.1981,688.4707 514.3294,688.4707 Q514.5544,688.4707 514.695,688.6301 Q514.8356,688.7801 514.8356,689.1457 L514.8356,690.0176 Q514.8356,690.3832 514.695,690.5426 Q514.5544,690.702 514.3294,690.702 Q514.1231,690.702 514.0013,690.5801 Q513.8794,690.4676 513.8138,690.1582 Q513.7856,689.9426 513.6731,689.8301 Q513.4763,689.6051 513.1106,689.4738 Q512.745,689.3426 512.37,689.3426 Q511.9106,689.3426 511.5263,689.5395 Q511.1513,689.7363 510.8513,690.1863 Q510.5606,690.6363 510.5606,691.2551 L510.5606,691.9113 Q510.5606,692.652 511.095,693.1488 Q511.6294,693.6363 512.5856,693.6363 Q513.1481,693.6363 513.5419,693.4863 Q513.7763,693.3926 514.0294,693.1301 Q514.1888,692.9707 514.2731,692.9238 Q514.3669,692.877 514.4888,692.877 Q514.6856,692.877 514.8356,693.0363 Q514.995,693.1863 514.995,693.3926 Q514.995,693.5988 514.7888,693.8426 Q514.4888,694.1895 514.0106,694.3863 Q513.3638,694.6582 512.5856,694.6582 Q511.6763,694.6582 510.9544,694.2832 Q510.3638,693.9832 509.9513,693.3457 Q509.5388,692.6988 509.5388,691.9301 L509.5388,691.2363 Q509.5388,690.4395 509.9044,689.7551 Q510.2794,689.0613 510.9356,688.6957 Q511.5919,688.3207 512.3325,688.3207 Q512.7731,688.3207 513.1575,688.4238 Q513.5513,688.5176 513.8794,688.7332 Z " fill="#000000"/><text fill="#000000" font-family="sans-serif" font-size="8.4" lengthAdjust="spacing" textLength="49.2" x="522.18" y="694.6863">CitizenProfile</text><line style="stroke:#181818;stroke-width:0.3;" x1="496.8" x2="579.6" y1="700.8082" y2="700.8082"/><rect fill="none" height="3.6" style="stroke:#C82930;stroke-width:0.6;" width="3.6" x="501" y="707.8945"/><text fill="#000000" font-family="sans-serif" font-size="8.4" lengthAdjust="spacing" textLength="51" x="508.2" y="712.2727">int totalPoints</text><rect fill="none" height="3.6" style="stroke:#C82930;stroke-width:0.6;" width="3.6" x="501" y="719.0672"/><text fill="#000000" font-family="sans-serif" font-size="8.4" lengthAdjust="spacing" textLength="68.4" x="508.2" y="723.4453">int availablePoints</text><line style="stroke:#181818;stroke-width:0.3;" x1="496.8" x2="579.6" y1="727.9535" y2="727.9535"/></g><!--class PersonalInterest--><g id="elem_PersonalInterest"><rect codeLine="39" fill="#F1F1F1" height="28.8" id="PersonalInterest" rx="1.5" ry="1.5" style="stroke:#181818;stroke-width:0.3;" width="81" x="497.7" y="810.6082"/><ellipse cx="506.7" cy="820.2082" fill="#ADD1B2" rx="6.6" ry="6.6" style="stroke:#181818;stroke-width:0.6;"/><path d="M508.3594,817.7332 Q508.4531,817.602 508.5656,817.5363 Q508.6781,817.4707 508.8094,817.4707 Q509.0344,817.4707 509.175,817.6301 Q509.3156,817.7801 509.3156,818.1457 L509.3156,819.0176 Q509.3156,819.3832 509.175,819.5426 Q509.0344,819.702 508.8094,819.702 Q508.6031,819.702 508.4813,819.5801 Q508.3594,819.4676 508.2938,819.1582 Q508.2656,818.9426 508.1531,818.8301 Q507.9562,818.6051 507.5906,818.4738 Q507.225,818.3426 506.85,818.3426 Q506.3906,818.3426 506.0062,818.5395 Q505.6312,818.7363 505.3312,819.1863 Q505.0406,819.6363 505.0406,820.2551 L505.0406,820.9113 Q505.0406,821.652 505.575,822.1488 Q506.1094,822.6363 507.0656,822.6363 Q507.6281,822.6363 508.0219,822.4863 Q508.2562,822.3926 508.5094,822.1301 Q508.6688,821.9707 508.7531,821.9238 Q508.8469,821.877 508.9688,821.877 Q509.1656,821.877 509.3156,822.0363 Q509.475,822.1863 509.475,822.3926 Q509.475,822.5988 509.2687,822.8426 Q508.9688,823.1895 508.4906,823.3863 Q507.8438,823.6582 507.0656,823.6582 Q506.1563,823.6582 505.4344,823.2832 Q504.8438,822.9832 504.4313,822.3457 Q504.0187,821.6988 504.0187,820.9301 L504.0187,820.2363 Q504.0187,819.4395 504.3844,818.7551 Q504.7594,818.0613 505.4156,817.6957 Q506.0719,817.3207 506.8125,817.3207 Q507.2531,817.3207 507.6375,817.4238 Q508.0313,817.5176 508.3594,817.7332 Z " fill="#000000"/><text fill="#000000" font-family="sans-serif" font-size="8.4" lengthAdjust="spacing" textLength="61.8" x="515.1" y="823.6863">PersonalInterest</text><line style="stroke:#181818;stroke-width:0.3;" x1="498.3" x2="578.1" y1="829.8082" y2="829.8082"/><line style="stroke:#181818;stroke-width:0.3;" x1="498.3" x2="578.1" y1="834.6082" y2="834.6082"/></g><!--class Praise--><g id="elem_Praise"><rect codeLine="45" fill="#F1F1F1" height="39.9727" id="Praise" rx="1.5" ry="1.5" style="stroke:#181818;stroke-width:0.3;" width="62.4" x="338.4" y="25.8082"/><ellipse cx="356.04" cy="35.4082" fill="#ADD1B2" rx="6.6" ry="6.6" style="stroke:#181818;stroke-width:0.6;"/><path d="M357.6994,32.9332 Q357.7931,32.802 357.9056,32.7363 Q358.0181,32.6707 358.1494,32.6707 Q358.3744,32.6707 358.515,32.8301 Q358.6556,32.9801 358.6556,33.3457 L358.6556,34.2176 Q358.6556,34.5832 358.515,34.7426 Q358.3744,34.902 358.1494,34.902 Q357.9431,34.902 357.8212,34.7801 Q357.6994,34.6676 357.6337,34.3582 Q357.6056,34.1426 357.4931,34.0301 Q357.2963,33.8051 356.9306,33.6738 Q356.565,33.5426 356.19,33.5426 Q355.7306,33.5426 355.3463,33.7395 Q354.9713,33.9363 354.6713,34.3863 Q354.3806,34.8363 354.3806,35.4551 L354.3806,36.1113 Q354.3806,36.852 354.915,37.3488 Q355.4494,37.8363 356.4056,37.8363 Q356.9681,37.8363 357.3619,37.6863 Q357.5963,37.5926 357.8494,37.3301 Q358.0087,37.1707 358.0931,37.1238 Q358.1869,37.077 358.3088,37.077 Q358.5056,37.077 358.6556,37.2363 Q358.815,37.3863 358.815,37.5926 Q358.815,37.7988 358.6088,38.0426 Q358.3088,38.3895 357.8306,38.5863 Q357.1838,38.8582 356.4056,38.8582 Q355.4963,38.8582 354.7744,38.4832 Q354.1838,38.1832 353.7712,37.5457 Q353.3588,36.8988 353.3588,36.1301 L353.3588,35.4363 Q353.3588,34.6395 353.7244,33.9551 Q354.0994,33.2613 354.7556,32.8957 Q355.4119,32.5207 356.1525,32.5207 Q356.5931,32.5207 356.9775,32.6238 Q357.3713,32.7176 357.6994,32.9332 Z " fill="#000000"/><text fill="#000000" font-family="sans-serif" font-size="8.4" lengthAdjust="spacing" textLength="24" x="366.36" y="38.8863">Praise</text><line style="stroke:#181818;stroke-width:0.3;" x1="339" x2="400.2" y1="45.0082" y2="45.0082"/><rect fill="none" height="3.6" style="stroke:#C82930;stroke-width:0.6;" width="3.6" x="343.2" y="52.0945"/><text fill="#000000" font-family="sans-serif" font-size="8.4" lengthAdjust="spacing" textLength="46.8" x="350.4" y="56.4727">string praise</text><line style="stroke:#181818;stroke-width:0.3;" x1="339" x2="400.2" y1="60.9809" y2="60.9809"/></g><!--class Issue--><g id="elem_Issue"><rect codeLine="59" fill="#F1F1F1" height="62.318" id="Issue" rx="1.5" ry="1.5" style="stroke:#181818;stroke-width:0.3;" width="81.6" x="328.8" y="202.8082"/><ellipse cx="357.15" cy="212.4082" fill="#ADD1B2" rx="6.6" ry="6.6" style="stroke:#181818;stroke-width:0.6;"/><path d="M358.8094,209.9332 Q358.9031,209.802 359.0156,209.7363 Q359.1281,209.6707 359.2594,209.6707 Q359.4844,209.6707 359.625,209.8301 Q359.7656,209.9801 359.7656,210.3457 L359.7656,211.2176 Q359.7656,211.5832 359.625,211.7426 Q359.4844,211.902 359.2594,211.902 Q359.0531,211.902 358.9313,211.7801 Q358.8094,211.6676 358.7438,211.3582 Q358.7156,211.1426 358.6031,211.0301 Q358.4063,210.8051 358.0406,210.6738 Q357.675,210.5426 357.3,210.5426 Q356.8406,210.5426 356.4563,210.7395 Q356.0813,210.9363 355.7813,211.3863 Q355.4906,211.8363 355.4906,212.4551 L355.4906,213.1113 Q355.4906,213.852 356.025,214.3488 Q356.5594,214.8363 357.5156,214.8363 Q358.0781,214.8363 358.4719,214.6863 Q358.7063,214.5926 358.9594,214.3301 Q359.1188,214.1707 359.2031,214.1238 Q359.2969,214.077 359.4188,214.077 Q359.6156,214.077 359.7656,214.2363 Q359.925,214.3863 359.925,214.5926 Q359.925,214.7988 359.7188,215.0426 Q359.4188,215.3895 358.9406,215.5863 Q358.2938,215.8582 357.5156,215.8582 Q356.6063,215.8582 355.8844,215.4832 Q355.2938,215.1832 354.8812,214.5457 Q354.4688,213.8988 354.4688,213.1301 L354.4688,212.4363 Q354.4688,211.6395 354.8344,210.9551 Q355.2094,210.2613 355.8656,209.8957 Q356.5219,209.5207 357.2625,209.5207 Q357.7031,209.5207 358.0875,209.6238 Q358.4813,209.7176 358.8094,209.9332 Z " fill="#000000"/><text fill="#000000" font-family="sans-serif" font-size="8.4" lengthAdjust="spacing" textLength="19.8" x="369.45" y="215.8863">Issue</text><line style="stroke:#181818;stroke-width:0.3;" x1="329.4" x2="409.8" y1="222.0082" y2="222.0082"/><rect fill="none" height="3.6" style="stroke:#C82930;stroke-width:0.6;" width="3.6" x="333.6" y="229.0945"/><text fill="#000000" font-family="sans-serif" font-size="8.4" lengthAdjust="spacing" textLength="37.2" x="340.8" y="233.4727">Date date</text><rect fill="none" height="3.6" style="stroke:#C82930;stroke-width:0.6;" width="3.6" x="333.6" y="240.2672"/><text fill="#000000" font-family="sans-serif" font-size="8.4" lengthAdjust="spacing" textLength="37.8" x="340.8" y="244.6453">String title</text><rect fill="none" height="3.6" style="stroke:#C82930;stroke-width:0.6;" width="3.6" x="333.6" y="251.4398"/><text fill="#000000" font-family="sans-serif" font-size="8.4" lengthAdjust="spacing" textLength="66" x="340.8" y="255.818">String description</text><line style="stroke:#181818;stroke-width:0.3;" x1="329.4" x2="409.8" y1="260.3262" y2="260.3262"/></g><!--class IssueLocation--><g id="elem_IssueLocation"><rect codeLine="65" fill="#F1F1F1" height="39.9727" id="IssueLocation" rx="1.5" ry="1.5" style="stroke:#181818;stroke-width:0.3;" width="96" x="321.6" y="318.0082"/><ellipse cx="341.67" cy="327.6082" fill="#ADD1B2" rx="6.6" ry="6.6" style="stroke:#181818;stroke-width:0.6;"/><path d="M343.3294,325.1332 Q343.4231,325.002 343.5356,324.9363 Q343.6481,324.8707 343.7794,324.8707 Q344.0044,324.8707 344.145,325.0301 Q344.2856,325.1801 344.2856,325.5457 L344.2856,326.4176 Q344.2856,326.7832 344.145,326.9426 Q344.0044,327.102 343.7794,327.102 Q343.5731,327.102 343.4513,326.9801 Q343.3294,326.8676 343.2638,326.5582 Q343.2356,326.3426 343.1231,326.2301 Q342.9263,326.0051 342.5606,325.8738 Q342.195,325.7426 341.82,325.7426 Q341.3606,325.7426 340.9763,325.9395 Q340.6013,326.1363 340.3013,326.5863 Q340.0106,327.0363 340.0106,327.6551 L340.0106,328.3113 Q340.0106,329.052 340.545,329.5488 Q341.0794,330.0363 342.0356,330.0363 Q342.5981,330.0363 342.9919,329.8863 Q343.2263,329.7926 343.4794,329.5301 Q343.6388,329.3707 343.7231,329.3238 Q343.8169,329.277 343.9388,329.277 Q344.1356,329.277 344.2856,329.4363 Q344.445,329.5863 344.445,329.7926 Q344.445,329.9988 344.2388,330.2426 Q343.9388,330.5895 343.4606,330.7863 Q342.8138,331.0582 342.0356,331.0582 Q341.1263,331.0582 340.4044,330.6832 Q339.8138,330.3832 339.4013,329.7457 Q338.9888,329.0988 338.9888,328.3301 L338.9888,327.6363 Q338.9888,326.8395 339.3544,326.1551 Q339.7294,325.4613 340.3856,325.0957 Q341.0419,324.7207 341.7825,324.7207 Q342.2231,324.7207 342.6075,324.8238 Q343.0013,324.9176 343.3294,325.1332 Z " fill="#000000"/><text fill="#000000" font-family="sans-serif" font-size="8.4" lengthAdjust="spacing" textLength="52.2" x="352.53" y="331.0863">IssueLocation</text><line style="stroke:#181818;stroke-width:0.3;" x1="322.2" x2="417" y1="337.2082" y2="337.2082"/><rect fill="none" height="3.6" style="stroke:#C82930;stroke-width:0.6;" width="3.6" x="326.4" y="344.2945"/><text fill="#000000" font-family="sans-serif" font-size="8.4" lengthAdjust="spacing" textLength="80.4" x="333.6" y="348.6727">String textDescription</text><line style="stroke:#181818;stroke-width:0.3;" x1="322.2" x2="417" y1="353.1809" y2="353.1809"/></g><!--class IssueStatus--><g id="elem_IssueStatus"><rect codeLine="69" fill="#F1F1F1" height="51.1453" id="IssueStatus" rx="1.5" ry="1.5" style="stroke:#181818;stroke-width:0.3;" width="109.2" x="147" y="411.0082"/><ellipse cx="177.15" cy="420.6082" fill="#EB937F" rx="6.6" ry="6.6" style="stroke:#181818;stroke-width:0.6;"/><path d="M176.4656,421.0863 L176.4656,422.5863 L179.0625,422.5863 L179.0625,422.0332 Q179.0625,421.6676 179.2031,421.5082 Q179.3531,421.3488 179.5781,421.3488 Q179.8031,421.3488 179.9438,421.5082 Q180.0844,421.6676 180.0844,422.0332 L180.0844,423.6082 L175.2844,423.6082 Q174.9094,423.6082 174.75,423.4676 Q174.6,423.327 174.6,423.0926 Q174.6,422.8676 174.7594,422.727 Q174.9188,422.5863 175.2844,422.5863 L175.4438,422.5863 L175.4438,418.5926 L175.2844,418.5926 Q174.9094,418.5926 174.75,418.452 Q174.6,418.3113 174.6,418.077 Q174.6,417.852 174.75,417.7113 Q174.9094,417.5707 175.2844,417.5707 L179.8594,417.5707 L179.8594,419.127 Q179.8594,419.4926 179.7188,419.652 Q179.5875,419.802 179.3531,419.802 Q179.1281,419.802 178.9875,419.652 Q178.8469,419.4926 178.8469,419.127 L178.8469,418.5926 L176.4656,418.5926 L176.4656,420.0645 L177.3563,420.0645 Q177.3563,419.6707 177.4313,419.5582 Q177.5906,419.3145 177.8719,419.3145 Q178.0969,419.3145 178.2375,419.4738 Q178.3781,419.6238 178.3781,419.9895 L178.3781,421.1707 Q178.3781,421.4988 178.3031,421.6113 Q178.1437,421.8457 177.8719,421.8457 Q177.5906,421.8457 177.4313,421.602 Q177.3563,421.4895 177.3563,421.0863 L176.4656,421.0863 Z " fill="#000000"/><text fill="#000000" font-family="sans-serif" font-size="8.4" lengthAdjust="spacing" textLength="43.8" x="189.45" y="424.0863">IssueStatus</text><line style="stroke:#181818;stroke-width:0.3;" x1="147.6" x2="255.6" y1="430.2082" y2="430.2082"/><text fill="#000000" font-family="sans-serif" font-size="8.4" lengthAdjust="spacing" textLength="102" x="150.6" y="441.6727">PENDING, IN_PROGRESS,</text><text fill="#000000" font-family="sans-serif" font-size="8.4" lengthAdjust="spacing" textLength="93" x="150.6" y="452.8453">RESOLVED, REJECTED</text><line style="stroke:#181818;stroke-width:0.3;" x1="147.6" x2="255.6" y1="457.3535" y2="457.3535"/></g><!--class IssueReaction--><g id="elem_IssueReaction"><rect codeLine="74" fill="#F1F1F1" height="28.8" id="IssueReaction" rx="1.5" ry="1.5" style="stroke:#181818;stroke-width:0.3;" width="72.6" x="227.7" y="323.7082"/><ellipse cx="236.7" cy="333.3082" fill="#ADD1B2" rx="6.6" ry="6.6" style="stroke:#181818;stroke-width:0.6;"/><path d="M238.3594,330.8332 Q238.4531,330.702 238.5656,330.6363 Q238.6781,330.5707 238.8094,330.5707 Q239.0344,330.5707 239.175,330.7301 Q239.3156,330.8801 239.3156,331.2457 L239.3156,332.1176 Q239.3156,332.4832 239.175,332.6426 Q239.0344,332.802 238.8094,332.802 Q238.6031,332.802 238.4813,332.6801 Q238.3594,332.5676 238.2938,332.2582 Q238.2656,332.0426 238.1531,331.9301 Q237.9562,331.7051 237.5906,331.5738 Q237.225,331.4426 236.85,331.4426 Q236.3906,331.4426 236.0063,331.6395 Q235.6313,331.8363 235.3312,332.2863 Q235.0406,332.7363 235.0406,333.3551 L235.0406,334.0113 Q235.0406,334.752 235.575,335.2488 Q236.1094,335.7363 237.0656,335.7363 Q237.6281,335.7363 238.0219,335.5863 Q238.2563,335.4926 238.5094,335.2301 Q238.6688,335.0707 238.7531,335.0238 Q238.8469,334.977 238.9688,334.977 Q239.1656,334.977 239.3156,335.1363 Q239.475,335.2863 239.475,335.4926 Q239.475,335.6988 239.2687,335.9426 Q238.9688,336.2895 238.4906,336.4863 Q237.8438,336.7582 237.0656,336.7582 Q236.1563,336.7582 235.4344,336.3832 Q234.8438,336.0832 234.4312,335.4457 Q234.0187,334.7988 234.0187,334.0301 L234.0187,333.3363 Q234.0187,332.5395 234.3844,331.8551 Q234.7594,331.1613 235.4156,330.7957 Q236.0719,330.4207 236.8125,330.4207 Q237.2531,330.4207 237.6375,330.5238 Q238.0313,330.6176 238.3594,330.8332 Z " fill="#000000"/><text fill="#000000" font-family="sans-serif" font-size="8.4" lengthAdjust="spacing" textLength="53.4" x="245.1" y="336.7863">IssueReaction</text><line style="stroke:#181818;stroke-width:0.3;" x1="228.3" x2="299.7" y1="342.9082" y2="342.9082"/><line style="stroke:#181818;stroke-width:0.3;" x1="228.3" x2="299.7" y1="347.7082" y2="347.7082"/></g><!--class IssueStatusUpdate--><g id="elem_IssueStatusUpdate"><rect codeLine="78" fill="#F1F1F1" height="51.1453" id="IssueStatusUpdate" rx="1.5" ry="1.5" style="stroke:#181818;stroke-width:0.3;" width="90" x="94.2" y="312.6082"/><ellipse cx="103.2" cy="322.2082" fill="#ADD1B2" rx="6.6" ry="6.6" style="stroke:#181818;stroke-width:0.6;"/><path d="M104.8594,319.7332 Q104.9531,319.602 105.0656,319.5363 Q105.1781,319.4707 105.3094,319.4707 Q105.5344,319.4707 105.675,319.6301 Q105.8156,319.7801 105.8156,320.1457 L105.8156,321.0176 Q105.8156,321.3832 105.675,321.5426 Q105.5344,321.702 105.3094,321.702 Q105.1031,321.702 104.9813,321.5801 Q104.8594,321.4676 104.7938,321.1582 Q104.7656,320.9426 104.6531,320.8301 Q104.4563,320.6051 104.0906,320.4738 Q103.725,320.3426 103.35,320.3426 Q102.8906,320.3426 102.5063,320.5395 Q102.1313,320.7363 101.8313,321.1863 Q101.5406,321.6363 101.5406,322.2551 L101.5406,322.9113 Q101.5406,323.652 102.075,324.1488 Q102.6094,324.6363 103.5656,324.6363 Q104.1281,324.6363 104.5219,324.4863 Q104.7563,324.3926 105.0094,324.1301 Q105.1688,323.9707 105.2531,323.9238 Q105.3469,323.877 105.4688,323.877 Q105.6656,323.877 105.8156,324.0363 Q105.975,324.1863 105.975,324.3926 Q105.975,324.5988 105.7688,324.8426 Q105.4688,325.1895 104.9906,325.3863 Q104.3438,325.6582 103.5656,325.6582 Q102.6563,325.6582 101.9344,325.2832 Q101.3438,324.9832 100.9312,324.3457 Q100.5188,323.6988 100.5188,322.9301 L100.5188,322.2363 Q100.5188,321.4395 100.8844,320.7551 Q101.2594,320.0613 101.9156,319.6957 Q102.5719,319.3207 103.3125,319.3207 Q103.7531,319.3207 104.1375,319.4238 Q104.5313,319.5176 104.8594,319.7332 Z " fill="#000000"/><text fill="#000000" font-family="sans-serif" font-size="8.4" lengthAdjust="spacing" textLength="70.8" x="111.6" y="325.6863">IssueStatusUpdate</text><line style="stroke:#181818;stroke-width:0.3;" x1="94.8" x2="183.6" y1="331.8082" y2="331.8082"/><rect fill="none" height="3.6" style="stroke:#C82930;stroke-width:0.6;" width="3.6" x="99" y="338.8945"/><text fill="#000000" font-family="sans-serif" font-size="8.4" lengthAdjust="spacing" textLength="37.2" x="106.2" y="343.2727">Date date</text><rect fill="none" height="3.6" style="stroke:#C82930;stroke-width:0.6;" width="3.6" x="99" y="350.0672"/><text fill="#000000" font-family="sans-serif" font-size="8.4" lengthAdjust="spacing" textLength="58.8" x="106.2" y="354.4453">String message</text><line style="stroke:#181818;stroke-width:0.3;" x1="94.8" x2="183.6" y1="358.9535" y2="358.9535"/></g><!--class Event--><g id="elem_Event"><rect codeLine="87" fill="#F1F1F1" height="95.8359" id="Event" rx="1.5" ry="1.5" style="stroke:#181818;stroke-width:0.3;" width="96" x="646.8" y="524.4082"/><ellipse cx="681.45" cy="534.0082" fill="#ADD1B2" rx="6.6" ry="6.6" style="stroke:#181818;stroke-width:0.6;"/><path d="M683.1094,531.5332 Q683.2031,531.402 683.3156,531.3363 Q683.4281,531.2707 683.5594,531.2707 Q683.7844,531.2707 683.925,531.4301 Q684.0656,531.5801 684.0656,531.9457 L684.0656,532.8176 Q684.0656,533.1832 683.925,533.3426 Q683.7844,533.502 683.5594,533.502 Q683.3531,533.502 683.2312,533.3801 Q683.1094,533.2676 683.0437,532.9582 Q683.0156,532.7426 682.9031,532.6301 Q682.7063,532.4051 682.3406,532.2738 Q681.975,532.1426 681.6,532.1426 Q681.1406,532.1426 680.7563,532.3395 Q680.3813,532.5363 680.0813,532.9863 Q679.7906,533.4363 679.7906,534.0551 L679.7906,534.7113 Q679.7906,535.452 680.325,535.9488 Q680.8594,536.4363 681.8156,536.4363 Q682.3781,536.4363 682.7719,536.2863 Q683.0063,536.1926 683.2594,535.9301 Q683.4187,535.7707 683.5031,535.7238 Q683.5969,535.677 683.7188,535.677 Q683.9156,535.677 684.0656,535.8363 Q684.225,535.9863 684.225,536.1926 Q684.225,536.3988 684.0188,536.6426 Q683.7188,536.9895 683.2406,537.1863 Q682.5938,537.4582 681.8156,537.4582 Q680.9063,537.4582 680.1844,537.0832 Q679.5938,536.7832 679.1813,536.1457 Q678.7688,535.4988 678.7688,534.7301 L678.7688,534.0363 Q678.7688,533.2395 679.1344,532.5551 Q679.5094,531.8613 680.1656,531.4957 Q680.8219,531.1207 681.5625,531.1207 Q682.0031,531.1207 682.3875,531.2238 Q682.7813,531.3176 683.1094,531.5332 Z " fill="#000000"/><text fill="#000000" font-family="sans-serif" font-size="8.4" lengthAdjust="spacing" textLength="21.6" x="693.75" y="537.4863">Event</text><line style="stroke:#181818;stroke-width:0.3;" x1="647.4" x2="742.2" y1="543.6082" y2="543.6082"/><rect fill="none" height="3.6" style="stroke:#C82930;stroke-width:0.6;" width="3.6" x="651.6" y="550.6945"/><text fill="#000000" font-family="sans-serif" font-size="8.4" lengthAdjust="spacing" textLength="45.6" x="658.8" y="555.0727">String name</text><rect fill="none" height="3.6" style="stroke:#C82930;stroke-width:0.6;" width="3.6" x="651.6" y="561.8672"/><text fill="#000000" font-family="sans-serif" font-size="8.4" lengthAdjust="spacing" textLength="66" x="658.8" y="566.2453">String description</text><rect fill="none" height="3.6" style="stroke:#C82930;stroke-width:0.6;" width="3.6" x="651.6" y="573.0398"/><text fill="#000000" font-family="sans-serif" font-size="8.4" lengthAdjust="spacing" textLength="37.2" x="658.8" y="577.418">Date start</text><rect fill="none" height="3.6" style="stroke:#C82930;stroke-width:0.6;" width="3.6" x="651.6" y="584.2125"/><text fill="#000000" font-family="sans-serif" font-size="8.4" lengthAdjust="spacing" textLength="34.8" x="658.8" y="588.5906">Date end</text><rect fill="none" height="3.6" style="stroke:#C82930;stroke-width:0.6;" width="3.6" x="651.6" y="595.3852"/><text fill="#000000" font-family="sans-serif" font-size="8.4" lengthAdjust="spacing" textLength="70.8" x="658.8" y="599.7633">int maxParticipants</text><rect fill="none" height="3.6" style="stroke:#C82930;stroke-width:0.6;" width="3.6" x="651.6" y="606.5578"/><text fill="#000000" font-family="sans-serif" font-size="8.4" lengthAdjust="spacing" textLength="80.4" x="658.8" y="610.9359">String officialEventUrl</text><line style="stroke:#181818;stroke-width:0.3;" x1="647.4" x2="742.2" y1="615.4441" y2="615.4441"/></g><!--class EventLocation--><g id="elem_EventLocation"><rect codeLine="96" fill="#F1F1F1" height="51.1453" id="EventLocation" rx="1.5" ry="1.5" style="stroke:#181818;stroke-width:0.3;" width="78.6" x="663.9" y="681.6082"/><ellipse cx="675.33" cy="691.2082" fill="#ADD1B2" rx="6.6" ry="6.6" style="stroke:#181818;stroke-width:0.6;"/><path d="M676.9894,688.7332 Q677.0831,688.602 677.1956,688.5363 Q677.3081,688.4707 677.4394,688.4707 Q677.6644,688.4707 677.805,688.6301 Q677.9456,688.7801 677.9456,689.1457 L677.9456,690.0176 Q677.9456,690.3832 677.805,690.5426 Q677.6644,690.702 677.4394,690.702 Q677.2331,690.702 677.1112,690.5801 Q676.9894,690.4676 676.9237,690.1582 Q676.8956,689.9426 676.7831,689.8301 Q676.5863,689.6051 676.2206,689.4738 Q675.855,689.3426 675.48,689.3426 Q675.0206,689.3426 674.6362,689.5395 Q674.2612,689.7363 673.9613,690.1863 Q673.6706,690.6363 673.6706,691.2551 L673.6706,691.9113 Q673.6706,692.652 674.205,693.1488 Q674.7394,693.6363 675.6956,693.6363 Q676.2581,693.6363 676.6519,693.4863 Q676.8862,693.3926 677.1394,693.1301 Q677.2987,692.9707 677.3831,692.9238 Q677.4769,692.877 677.5988,692.877 Q677.7956,692.877 677.9456,693.0363 Q678.105,693.1863 678.105,693.3926 Q678.105,693.5988 677.8988,693.8426 Q677.5988,694.1895 677.1206,694.3863 Q676.4738,694.6582 675.6956,694.6582 Q674.7863,694.6582 674.0644,694.2832 Q673.4738,693.9832 673.0613,693.3457 Q672.6488,692.6988 672.6488,691.9301 L672.6488,691.2363 Q672.6488,690.4395 673.0144,689.7551 Q673.3894,689.0613 674.0456,688.6957 Q674.7019,688.3207 675.4425,688.3207 Q675.8831,688.3207 676.2675,688.4238 Q676.6613,688.5176 676.9894,688.7332 Z " fill="#000000"/><text fill="#000000" font-family="sans-serif" font-size="8.4" lengthAdjust="spacing" textLength="54" x="684.27" y="694.6863">EventLocation</text><line style="stroke:#181818;stroke-width:0.3;" x1="664.5" x2="741.9" y1="700.8082" y2="700.8082"/><rect fill="none" height="3.6" style="stroke:#C82930;stroke-width:0.6;" width="3.6" x="668.7" y="707.8945"/><text fill="#000000" font-family="sans-serif" font-size="8.4" lengthAdjust="spacing" textLength="55.8" x="675.9" y="712.2727">double latitude</text><rect fill="none" height="3.6" style="stroke:#C82930;stroke-width:0.6;" width="3.6" x="668.7" y="719.0672"/><text fill="#000000" font-family="sans-serif" font-size="8.4" lengthAdjust="spacing" textLength="63" x="675.9" y="723.4453">double longitude</text><line style="stroke:#181818;stroke-width:0.3;" x1="664.5" x2="741.9" y1="727.9535" y2="727.9535"/></g><!--class Address--><g id="elem_Address"><rect codeLine="101" fill="#F1F1F1" height="62.318" id="Address" rx="1.5" ry="1.5" style="stroke:#181818;stroke-width:0.3;" width="84" x="658.8" y="793.8082"/><ellipse cx="682.92" cy="803.4082" fill="#ADD1B2" rx="6.6" ry="6.6" style="stroke:#181818;stroke-width:0.6;"/><path d="M684.5794,800.9332 Q684.6731,800.802 684.7856,800.7363 Q684.8981,800.6707 685.0294,800.6707 Q685.2544,800.6707 685.395,800.8301 Q685.5356,800.9801 685.5356,801.3457 L685.5356,802.2176 Q685.5356,802.5832 685.395,802.7426 Q685.2544,802.902 685.0294,802.902 Q684.8231,802.902 684.7013,802.7801 Q684.5794,802.6676 684.5138,802.3582 Q684.4856,802.1426 684.3731,802.0301 Q684.1763,801.8051 683.8106,801.6738 Q683.445,801.5426 683.07,801.5426 Q682.6106,801.5426 682.2263,801.7395 Q681.8513,801.9363 681.5513,802.3863 Q681.2606,802.8363 681.2606,803.4551 L681.2606,804.1113 Q681.2606,804.852 681.795,805.3488 Q682.3294,805.8363 683.2856,805.8363 Q683.8481,805.8363 684.2419,805.6863 Q684.4763,805.5926 684.7294,805.3301 Q684.8888,805.1707 684.9731,805.1238 Q685.0669,805.077 685.1888,805.077 Q685.3856,805.077 685.5356,805.2363 Q685.695,805.3863 685.695,805.5926 Q685.695,805.7988 685.4888,806.0426 Q685.1888,806.3895 684.7106,806.5863 Q684.0638,806.8582 683.2856,806.8582 Q682.3763,806.8582 681.6544,806.4832 Q681.0638,806.1832 680.6513,805.5457 Q680.2388,804.8988 680.2388,804.1301 L680.2388,803.4363 Q680.2388,802.6395 680.6044,801.9551 Q680.9794,801.2613 681.6356,800.8957 Q682.2919,800.5207 683.0325,800.5207 Q683.4731,800.5207 683.8575,800.6238 Q684.2513,800.7176 684.5794,800.9332 Z " fill="#000000"/><text fill="#000000" font-family="sans-serif" font-size="8.4" lengthAdjust="spacing" textLength="31.2" x="694.68" y="806.8863">Address</text><line style="stroke:#181818;stroke-width:0.3;" x1="659.4" x2="742.2" y1="813.0082" y2="813.0082"/><rect fill="none" height="3.6" style="stroke:#C82930;stroke-width:0.6;" width="3.6" x="663.6" y="820.0945"/><text fill="#000000" font-family="sans-serif" font-size="8.4" lengthAdjust="spacing" textLength="46.2" x="670.8" y="824.4727">String street</text><rect fill="none" height="3.6" style="stroke:#C82930;stroke-width:0.6;" width="3.6" x="663.6" y="831.2672"/><text fill="#000000" font-family="sans-serif" font-size="8.4" lengthAdjust="spacing" textLength="40.2" x="670.8" y="835.6453">int number</text><rect fill="none" height="3.6" style="stroke:#C82930;stroke-width:0.6;" width="3.6" x="663.6" y="842.4398"/><text fill="#000000" font-family="sans-serif" font-size="8.4" lengthAdjust="spacing" textLength="68.4" x="670.8" y="846.818">String postal code</text><line style="stroke:#181818;stroke-width:0.3;" x1="659.4" x2="742.2" y1="851.3262" y2="851.3262"/></g><!--class Reaction--><g id="elem_Reaction"><rect codeLine="53" fill="#F1F1F1" height="39.9727" id="Reaction" rx="1.5" ry="1.5" style="stroke:#181818;stroke-width:0.3;" width="52.8" x="436.8" y="416.4082"/><ellipse cx="445.8" cy="426.0082" fill="#EB937F" rx="6.6" ry="6.6" style="stroke:#181818;stroke-width:0.6;"/><path d="M445.1156,426.4863 L445.1156,427.9863 L447.7125,427.9863 L447.7125,427.4332 Q447.7125,427.0676 447.8531,426.9082 Q448.0031,426.7488 448.2281,426.7488 Q448.4531,426.7488 448.5938,426.9082 Q448.7344,427.0676 448.7344,427.4332 L448.7344,429.0082 L443.9344,429.0082 Q443.5594,429.0082 443.4,428.8676 Q443.25,428.727 443.25,428.4926 Q443.25,428.2676 443.4094,428.127 Q443.5687,427.9863 443.9344,427.9863 L444.0938,427.9863 L444.0938,423.9926 L443.9344,423.9926 Q443.5594,423.9926 443.4,423.852 Q443.25,423.7113 443.25,423.477 Q443.25,423.252 443.4,423.1113 Q443.5594,422.9707 443.9344,422.9707 L448.5094,422.9707 L448.5094,424.527 Q448.5094,424.8926 448.3688,425.052 Q448.2375,425.202 448.0031,425.202 Q447.7781,425.202 447.6375,425.052 Q447.4969,424.8926 447.4969,424.527 L447.4969,423.9926 L445.1156,423.9926 L445.1156,425.4645 L446.0062,425.4645 Q446.0062,425.0707 446.0813,424.9582 Q446.2406,424.7145 446.5219,424.7145 Q446.7469,424.7145 446.8875,424.8738 Q447.0281,425.0238 447.0281,425.3895 L447.0281,426.5707 Q447.0281,426.8988 446.9531,427.0113 Q446.7938,427.2457 446.5219,427.2457 Q446.2406,427.2457 446.0813,427.002 Q446.0062,426.8895 446.0062,426.4863 L445.1156,426.4863 Z " fill="#000000"/><text fill="#000000" font-family="sans-serif" font-size="8.4" lengthAdjust="spacing" textLength="33.6" x="454.2" y="429.4863">Reaction</text><line style="stroke:#181818;stroke-width:0.3;" x1="437.4" x2="489" y1="435.6082" y2="435.6082"/><text fill="#000000" font-family="sans-serif" font-size="8.4" lengthAdjust="spacing" textLength="41.4" x="440.4" y="447.0727">UP, DOWN</text><line style="stroke:#181818;stroke-width:0.3;" x1="437.4" x2="489" y1="451.5809" y2="451.5809"/></g><!--reverse link User to Admin--><g id="link_User_Admin"><path codeLine="112" d="M231.2539,862.9014 C224.3359,868.2234 225.384,866.7082 217.8,870.6082 C182.652,888.6862 167.322,876.2722 132,894.0082 C126.174,896.9362 120.384,901.0222 115.368,905.0362 " fill="none" id="User-backto-Admin" style="stroke:#181818;stroke-width:0.6;"/><polygon fill="none" points="239.814,856.3162,229.0589,860.0481,233.449,865.7548,239.814,856.3162" style="stroke:#181818;stroke-width:0.6;"/></g><!--reverse link User to EventManager--><g id="link_User_EventManager"><path codeLine="113" d="M249.0296,865.6864 C241.7576,877.8424 239.064,882.3562 232.17,893.8762 " fill="none" id="User-backto-EventManager" style="stroke:#181818;stroke-width:0.6;"/><polygon fill="none" points="254.574,856.4182,245.9402,863.8382,252.119,867.5345,254.574,856.4182" style="stroke:#181818;stroke-width:0.6;"/></g><!--reverse link User to EventWorker--><g id="link_User_EventWorker"><path codeLine="114" d="M319.0602,863.1062 C334.0602,875.3222 342.732,882.3802 356.958,893.9602 " fill="none" id="User-backto-EventWorker" style="stroke:#181818;stroke-width:0.6;"/><polygon fill="none" points="310.686,856.2862,316.7869,865.8976,321.3336,860.3148,310.686,856.2862" style="stroke:#181818;stroke-width:0.6;"/></g><!--reverse link User to Citizen--><g id="link_User_Citizen"><path codeLine="115" d="M232.4818,862.8927 C225.2938,868.4187 225.93,866.9782 217.8,870.6082 C202.458,877.4542 83.868,887.4502 68.4,894.0082 C62.058,896.6962 55.83,900.8722 50.526,905.0362 " fill="none" id="User-backto-Citizen" style="stroke:#181818;stroke-width:0.6;"/><polygon fill="none" points="241.044,856.3102,230.2876,860.0386,234.676,865.7467,241.044,856.3102" style="stroke:#181818;stroke-width:0.6;"/></g><!--link CitizenProfile to PersonalInterest--><g id="link_CitizenProfile_PersonalInterest"><path codeLine="117" d="M538.2,732.7462 C538.2,756.5182 538.2,787.7902 538.2,806.9422 " fill="none" id="CitizenProfile-to-PersonalInterest" style="stroke:#181818;stroke-width:0.6;"/><polygon fill="#181818" points="538.2,810.5422,540.6,805.1422,538.2,807.5422,535.8,805.1422,538.2,810.5422" style="stroke:#181818;stroke-width:0.6;"/><text fill="#000000" font-family="sans-serif" font-size="7.8" lengthAdjust="spacing" textLength="4.2" x="533.6653" y="746.0644">1</text><text fill="#000000" font-family="sans-serif" font-size="7.8" lengthAdjust="spacing" textLength="3" x="534.8156" y="803.7678">*</text></g><!--link CitizenProfile to Event--><g id="link_CitizenProfile_Event"><path codeLine="118" d="M553.074,681.4942 C562.056,667.7362 574.374,650.9602 588,638.4082 C605.352,622.4242 624.0511,610.0206 643.4431,598.9866 " fill="none" id="CitizenProfile-to-Event" style="stroke:#181818;stroke-width:0.6;"/><polygon fill="#181818" points="646.572,597.2062,640.6917,597.7908,643.9645,598.6898,643.0655,601.9627,646.572,597.2062" style="stroke:#181818;stroke-width:0.6;"/><text fill="#000000" font-family="sans-serif" font-size="7.8" lengthAdjust="spacing" textLength="54.6" x="588.6" y="647.4252">attended events</text><text fill="#000000" font-family="sans-serif" font-size="7.8" lengthAdjust="spacing" textLength="4.2" x="550.9099" y="674.8185">1</text><text fill="#000000" font-family="sans-serif" font-size="7.8" lengthAdjust="spacing" textLength="3" x="638.9877" y="597.2547">*</text></g><!--link Praise to CitizenProfile--><g id="link_Praise_CitizenProfile"><path codeLine="120" d="M338.376,49.0042 C259.56,55.7182 58.8,75.5842 58.8,103.8082 C58.8,103.8082 58.8,103.8082 58.8,573.0082 C58.8,608.4682 53.508,626.6962 80.4,649.8082 C142.2,702.9202 391.434,707.4339 492.534,707.0499 " fill="none" id="Praise-to-CitizenProfile" style="stroke:#181818;stroke-width:0.6;"/><polygon fill="#181818" points="496.134,707.0362,490.7249,704.6567,493.134,707.0476,490.7432,709.4567,496.134,707.0362" style="stroke:#181818;stroke-width:0.6;"/><text fill="#000000" font-family="sans-serif" font-size="7.8" lengthAdjust="spacing" textLength="15" x="59.4" y="292.2252">from</text><text fill="#000000" font-family="sans-serif" font-size="7.8" lengthAdjust="spacing" textLength="4.2" x="329.4898" y="46.9676">1</text><text fill="#000000" font-family="sans-serif" font-size="7.8" lengthAdjust="spacing" textLength="4.2" x="487.1033" y="704.6891">1</text></g><!--link Praise to EventWorker--><g id="link_Praise_EventWorker"><path codeLine="121" d="M400.83,46.5382 C515.562,47.0422 907.2,52.5382 907.2,103.8082 C907.2,103.8082 907.2,103.8082 907.2,825.6082 C907.2,878.3362 852.234,870.4342 799.8,876.0082 C681.93,888.5302 548.633,902.3331 466.031,910.8471 " fill="none" id="Praise-to-EventWorker" style="stroke:#181818;stroke-width:0.6;"/><polygon fill="#181818" points="462.45,911.2162,468.0676,913.0499,465.4342,910.9086,467.5755,908.2752,462.45,911.2162" style="stroke:#181818;stroke-width:0.6;"/><text fill="#000000" font-family="sans-serif" font-size="7.8" lengthAdjust="spacing" textLength="85.8" x="907.8" y="390.6252">to worker that completed</text><text fill="#000000" font-family="sans-serif" font-size="7.8" lengthAdjust="spacing" textLength="4.2" x="405.517" y="44.1549">1</text><text fill="#000000" font-family="sans-serif" font-size="7.8" lengthAdjust="spacing" textLength="4.2" x="467.1391" y="908.618">1</text></g><!--link Issue to IssueStatus--><g id="link_Issue_IssueStatus"><path codeLine="123" d="M328.644,244.0942 C293.136,254.5882 243.444,275.1982 217.2,312.6082 C206.418,327.9742 203.2063,375.8141 202.1743,407.1941 " fill="none" id="Issue-to-IssueStatus" style="stroke:#181818;stroke-width:0.6;"/><polygon fill="#181818" points="202.056,410.7922,204.6322,405.474,202.1546,407.7938,199.8348,405.3162,202.056,410.7922" style="stroke:#181818;stroke-width:0.6;"/><text fill="#000000" font-family="sans-serif" font-size="7.8" lengthAdjust="spacing" textLength="4.2" x="319.7348" y="242.8706">1</text><text fill="#000000" font-family="sans-serif" font-size="7.8" lengthAdjust="spacing" textLength="4.2" x="197.6043" y="404.2927">1</text></g><!--link Issue to CitizenProfile--><g id="link_Issue_CitizenProfile"><path codeLine="124" d="M408.468,265.3282 C457.782,307.5622 538.758,388.9102 558,481.2082 C572.946,552.8962 556.4835,636.2188 545.9655,678.0688 " fill="none" id="Issue-to-CitizenProfile" style="stroke:#181818;stroke-width:0.6;"/><polygon fill="#181818" points="545.088,681.5602,548.7318,676.9081,545.8192,678.6507,544.0766,675.7381,545.088,681.5602" style="stroke:#181818;stroke-width:0.6;"/><text fill="#000000" font-family="sans-serif" font-size="7.8" lengthAdjust="spacing" textLength="39" x="556.8" y="439.8252">reported by</text><text fill="#000000" font-family="sans-serif" font-size="7.8" lengthAdjust="spacing" textLength="4.2" x="408.9789" y="278.4279">1</text><text fill="#000000" font-family="sans-serif" font-size="7.8" lengthAdjust="spacing" textLength="4.2" x="541.6511" y="674.895">1</text></g><!--link Issue to EventWorker--><g id="link_Issue_EventWorker"><path codeLine="125" d="M410.406,235.0042 C523.728,237.2002 834,251.1082 834,337.5082 C834,337.5082 834,337.5082 834,825.6082 C834,900.6262 592.9971,915.6257 465.9171,918.3977 " fill="none" id="Issue-to-EventWorker" style="stroke:#181818;stroke-width:0.6;"/><polygon fill="#181818" points="462.318,918.4762,467.7691,920.7579,465.3173,918.4108,467.6644,915.959,462.318,918.4762" style="stroke:#181818;stroke-width:0.6;"/><text fill="#000000" font-family="sans-serif" font-size="7.8" lengthAdjust="spacing" textLength="40.2" x="834.6" y="575.7252">assigned to</text><text fill="#000000" font-family="sans-serif" font-size="7.8" lengthAdjust="spacing" textLength="4.2" x="415.0988" y="232.7864">1</text><text fill="#000000" font-family="sans-serif" font-size="7.8" lengthAdjust="spacing" textLength="4.2" x="466.9991" y="927.142">1</text></g><!--link Issue to IssueReaction--><g id="link_Issue_IssueReaction"><path codeLine="126" d="M337.914,265.4842 C318.114,284.7802 296.1404,306.1899 280.9124,321.0279 " fill="none" id="Issue-to-IssueReaction" style="stroke:#181818;stroke-width:0.6;"/><polygon fill="#181818" points="278.334,323.5402,283.8765,321.4906,280.4827,321.4466,280.5267,318.0527,278.334,323.5402" style="stroke:#181818;stroke-width:0.6;"/><text fill="#000000" font-family="sans-serif" font-size="7.8" lengthAdjust="spacing" textLength="30.6" x="317.4" y="292.2252">can have</text><text fill="#000000" font-family="sans-serif" font-size="7.8" lengthAdjust="spacing" textLength="4.2" x="329.5963" y="278.3745">1</text><text fill="#000000" font-family="sans-serif" font-size="7.8" lengthAdjust="spacing" textLength="3" x="278.4623" y="316.9844">*</text></g><!--link Issue to IssueStatusUpdate--><g id="link_Issue_IssueStatusUpdate"><path codeLine="127" d="M328.662,235.0042 C284.838,237.4222 215.334,247.2442 168.6,283.2082 C159,290.5942 153.611,298.7529 148.949,309.2349 " fill="none" id="Issue-to-IssueStatusUpdate" style="stroke:#181818;stroke-width:0.6;"/><polygon fill="#181818" points="147.486,312.5242,151.8733,308.5655,148.7051,309.7831,147.4876,306.6149,147.486,312.5242" style="stroke:#181818;stroke-width:0.6;"/><text fill="#000000" font-family="sans-serif" font-size="7.8" lengthAdjust="spacing" textLength="30.6" x="169.2" y="292.2252">can have</text><text fill="#000000" font-family="sans-serif" font-size="7.8" lengthAdjust="spacing" textLength="4.2" x="319.7547" y="232.7864">1</text><text fill="#000000" font-family="sans-serif" font-size="7.8" lengthAdjust="spacing" textLength="3" x="145.5675" y="305.8533">*</text></g><!--link Issue to IssueLocation--><g id="link_Issue_IssueLocation"><path codeLine="128" d="M369.6,265.4842 C369.6,282.5302 369.6,299.5882 369.6,314.4022 " fill="none" id="Issue-to-IssueLocation" style="stroke:#181818;stroke-width:0.6;"/><polygon fill="#181818" points="369.6,318.0022,372,312.6022,369.6,315.0022,367.2,312.6022,369.6,318.0022" style="stroke:#181818;stroke-width:0.6;"/><text fill="#000000" font-family="sans-serif" font-size="7.8" lengthAdjust="spacing" textLength="12.6" x="370.2" y="292.2252">has</text><text fill="#000000" font-family="sans-serif" font-size="7.8" lengthAdjust="spacing" textLength="4.2" x="365.1441" y="278.3745">1</text><text fill="#000000" font-family="sans-serif" font-size="7.8" lengthAdjust="spacing" textLength="4.2" x="364.9866" y="311.2963">1</text></g><!--link Praise to Issue--><g id="link_Praise_Issue"><path codeLine="129" d="M369.6,66.1582 C369.6,98.7262 369.6,160.5262 369.6,199.1962 " fill="none" id="Praise-to-Issue" style="stroke:#181818;stroke-width:0.6;"/><polygon fill="#181818" points="369.6,202.7962,372,197.3962,369.6,199.7962,367.2,197.3962,369.6,202.7962" style="stroke:#181818;stroke-width:0.6;"/><text fill="#000000" font-family="sans-serif" font-size="7.8" lengthAdjust="spacing" textLength="52.8" x="370.2" y="131.4252">has associated</text><text fill="#000000" font-family="sans-serif" font-size="7.8" lengthAdjust="spacing" textLength="4.2" x="365.0391" y="78.9668">1</text><text fill="#000000" font-family="sans-serif" font-size="7.8" lengthAdjust="spacing" textLength="4.2" x="365.1178" y="196.151">1</text></g><!--link IssueReaction to Reaction--><g id="link_IssueReaction_Reaction"><path codeLine="131" d="M289.362,352.5982 C296.43,356.3122 304.152,360.2302 311.4,363.6082 C361.806,387.0982 378.312,384.5002 427.2,411.0082 C430.338,412.7122 430.507,412.6901 433.639,414.6881 " fill="none" id="IssueReaction-to-Reaction" style="stroke:#181818;stroke-width:0.6;"/><polygon fill="#181818" points="436.674,416.6242,433.4122,411.6966,434.1448,415.0108,430.8307,415.7433,436.674,416.6242" style="stroke:#181818;stroke-width:0.6;"/><text fill="#000000" font-family="sans-serif" font-size="7.8" lengthAdjust="spacing" textLength="13.8" x="388.2" y="390.6252">with</text><text fill="#000000" font-family="sans-serif" font-size="7.8" lengthAdjust="spacing" textLength="4.2" x="290.8321" y="365.8115">1</text><text fill="#000000" font-family="sans-serif" font-size="7.8" lengthAdjust="spacing" textLength="13.2" x="418.8157" y="411.3561">0..1</text></g><!--link IssueReaction to CitizenProfile--><g id="link_IssueReaction_CitizenProfile"><path codeLine="132" d="M287.004,352.5562 C294.564,356.6182 303.144,360.7402 311.4,363.6082 C393.198,392.0422 444.882,344.5462 500.4,411.0082 C534.51,451.8442 538.1982,614.3182 538.3362,677.9422 " fill="none" id="IssueReaction-to-CitizenProfile" style="stroke:#181818;stroke-width:0.6;"/><polygon fill="#181818" points="538.344,681.5422,540.7323,676.137,538.3375,678.5422,535.9323,676.1474,538.344,681.5422" style="stroke:#181818;stroke-width:0.6;"/><text fill="#000000" font-family="sans-serif" font-size="7.8" lengthAdjust="spacing" textLength="25.8" x="526.8" y="490.2252">reacted</text><text fill="#000000" font-family="sans-serif" font-size="7.8" lengthAdjust="spacing" textLength="4.2" x="287.8993" y="365.7593">1</text><text fill="#000000" font-family="sans-serif" font-size="7.8" lengthAdjust="spacing" textLength="4.2" x="533.8323" y="674.8741">1</text></g><!--link IssueStatusUpdate to EventWorker--><g id="link_IssueStatusUpdate_EventWorker"><path codeLine="134" d="M125.682,363.7102 C116.568,382.8922 106.2,410.3362 106.2,435.9082 C106.2,435.9082 106.2,435.9082 106.2,825.6082 C106.2,846.4522 103.542,857.0782 119.4,870.6082 C150.588,897.2182 262.266,885.6322 302.4,894.0082 C305.796,894.7162 305.7498,894.6569 309.2298,895.4849 " fill="none" id="IssueStatusUpdate-to-EventWorker" style="stroke:#181818;stroke-width:0.6;"/><polygon fill="#181818" points="312.732,896.3182,308.0342,892.7334,309.8135,895.6238,306.9231,897.4031,312.732,896.3182" style="stroke:#181818;stroke-width:0.6;"/><text fill="#000000" font-family="sans-serif" font-size="7.8" lengthAdjust="spacing" textLength="27.6" x="106.8" y="647.4252">done by</text><text fill="#000000" font-family="sans-serif" font-size="7.8" lengthAdjust="spacing" textLength="4.2" x="118.9929" y="377.0227">1</text><text fill="#000000" font-family="sans-serif" font-size="7.8" lengthAdjust="spacing" textLength="13.2" x="294.8221" y="892.9005">0..1</text></g><!--link IssueStatusUpdate to IssueStatus--><g id="link_IssueStatusUpdate_IssueStatus"><path codeLine="135" d="M147.234,363.7042 C150.852,373.2562 155.622,384.0082 161.4,393.0082 C165.366,399.1942 167.8779,402.6142 172.8939,408.1882 " fill="none" id="IssueStatusUpdate-to-IssueStatus" style="stroke:#181818;stroke-width:0.6;"/><polygon fill="#181818" points="175.302,410.8642,173.4738,405.2448,173.2952,408.6342,169.9058,408.4556,175.302,410.8642" style="stroke:#181818;stroke-width:0.6;"/><text fill="#000000" font-family="sans-serif" font-size="7.8" lengthAdjust="spacing" textLength="37.8" x="162" y="390.6252">new status</text><text fill="#000000" font-family="sans-serif" font-size="7.8" lengthAdjust="spacing" textLength="4.2" x="143.9797" y="377.0157">1</text><text fill="#000000" font-family="sans-serif" font-size="7.8" lengthAdjust="spacing" textLength="13.2" x="156.8589" y="404.1837">0..1</text></g><!--link Event to EventManager--><g id="link_Event_EventManager"><path codeLine="137" d="M735.954,620.6182 C742.95,631.1782 749.178,642.7702 753,654.6082 C767.754,700.2862 786.648,835.7962 753.6,870.6082 C719.034,907.0102 351.894,885.6082 302.4,894.0082 C298.98,894.5902 299.0272,894.5073 295.5292,895.2513 " fill="none" id="Event-to-EventManager" style="stroke:#181818;stroke-width:0.6;"/><polygon fill="#181818" points="292.008,896.0002,297.7891,897.2243,294.9424,895.3761,296.7906,892.5293,292.008,896.0002" style="stroke:#181818;stroke-width:0.6;"/><text fill="#000000" font-family="sans-serif" font-size="7.8" lengthAdjust="spacing" textLength="44.4" x="771" y="759.6252">organized by</text><text fill="#000000" font-family="sans-serif" font-size="7.8" lengthAdjust="spacing" textLength="4.2" x="734.9882" y="633.464">1</text><text fill="#000000" font-family="sans-serif" font-size="7.8" lengthAdjust="spacing" textLength="4.2" x="296.6946" y="892.4748">1</text></g><!--link Event to Issue--><g id="link_Event_Issue"><path codeLine="138" d="M691.284,524.3602 C683.868,459.8782 660.876,345.4882 589.8,283.2082 C563.484,260.1502 470.1348,246.0197 414.0348,239.3417 " fill="none" id="Event-to-Issue" style="stroke:#181818;stroke-width:0.6;"/><polygon fill="#181818" points="410.46,238.9162,415.5385,241.9377,413.439,239.2708,416.1058,237.1713,410.46,238.9162" style="stroke:#181818;stroke-width:0.6;"/><text fill="#000000" font-family="sans-serif" font-size="7.8" lengthAdjust="spacing" textLength="30.6" x="660.6" y="390.6252">can have</text><text fill="#000000" font-family="sans-serif" font-size="7.8" lengthAdjust="spacing" textLength="4.2" x="686.5663" y="517.6932">1</text><text fill="#000000" font-family="sans-serif" font-size="7.8" lengthAdjust="spacing" textLength="3" x="415.0931" y="248.4419">*</text></g><!--link Event to EventLocation--><g id="link_Event_EventLocation"><path codeLine="139" d="M697.788,620.4502 C699.084,641.0602 700.3218,660.7653 701.4018,677.9193 " fill="none" id="Event-to-EventLocation" style="stroke:#181818;stroke-width:0.6;"/><polygon fill="#181818" points="701.628,681.5122,703.684,675.9721,701.4395,678.5181,698.8934,676.2737,701.628,681.5122" style="stroke:#181818;stroke-width:0.6;"/><text fill="#000000" font-family="sans-serif" font-size="7.8" lengthAdjust="spacing" textLength="4.2" x="693.6643" y="633.4486">1</text><text fill="#000000" font-family="sans-serif" font-size="7.8" lengthAdjust="spacing" textLength="4.2" x="696.8428" y="674.8394">1</text></g><!--link Event to EventWorker--><g id="link_Event_EventWorker"><path codeLine="140" d="M668.898,620.4442 C663.384,631.4842 657.882,643.3162 653.4,654.6082 C616.47,747.6202 662.376,801.7042 589.8,870.6082 C571.38,888.0982 515.6478,900.3812 465.9978,908.4152 " fill="none" id="Event-to-EventWorker" style="stroke:#181818;stroke-width:0.6;"/><polygon fill="#181818" points="462.444,908.9902,468.158,910.4968,465.4055,908.511,467.3913,905.7585,462.444,908.9902" style="stroke:#181818;stroke-width:0.6;"/><text fill="#000000" font-family="sans-serif" font-size="7.8" lengthAdjust="spacing" textLength="42" x="636" y="759.6252">has workers</text><text fill="#000000" font-family="sans-serif" font-size="7.8" lengthAdjust="spacing" textLength="4.2" x="662.2916" y="633.4421">1</text><text fill="#000000" font-family="sans-serif" font-size="7.8" lengthAdjust="spacing" textLength="12" x="467.1178" y="917.0948">1..*</text></g><!--link EventLocation to Address--><g id="link_EventLocation_Address"><path codeLine="142" d="M702.684,732.7462 C702.318,750.5602 701.8999,771.003 701.5099,789.999 " fill="none" id="EventLocation-to-Address" style="stroke:#181818;stroke-width:0.6;"/><polygon fill="#181818" points="701.436,793.5982,703.9463,788.2486,701.4976,790.5988,699.1473,788.1501,701.436,793.5982" style="stroke:#181818;stroke-width:0.6;"/><text fill="#000000" font-family="sans-serif" font-size="7.8" lengthAdjust="spacing" textLength="4.2" x="698.0671" y="746.0644">1</text><text fill="#000000" font-family="sans-serif" font-size="7.8" lengthAdjust="spacing" textLength="4.2" x="697.0484" y="787.1538">1</text></g><!--link CitizenProfile to Citizen--><g id="link_CitizenProfile_Citizen"><path codeLine="144" d="M496.14,710.8822 C411.822,717.8182 225.414,736.2022 169.8,766.8082 C108.21,800.7022 62.7959,871.0279 44.9579,901.7899 " fill="none" id="CitizenProfile-to-Citizen" style="stroke:#181818;stroke-width:0.6;"/><polygon fill="#181818" points="43.152,904.9042,47.937,901.4367,44.6569,902.309,43.7846,899.0289,43.152,904.9042" style="stroke:#181818;stroke-width:0.6;"/><text fill="#000000" font-family="sans-serif" font-size="7.8" lengthAdjust="spacing" textLength="52.8" x="170.4" y="828.3252">has associated</text><text fill="#000000" font-family="sans-serif" font-size="7.8" lengthAdjust="spacing" textLength="4.2" x="487.11" y="720.2714">1</text><text fill="#000000" font-family="sans-serif" font-size="7.8" lengthAdjust="spacing" textLength="4.2" x="40.3297" y="898.3396">1</text></g><!--SRC=[jLR9Rjim4BthAmWT0zj8ha8H88YDm4Ng27RT70jQ6Yj4958bAJjTykyTKOj9IWfwgGusnNcSUNops2LDNca69DmhaEGkooHaL4D8VWS4doIdIX5ZQpRgPqvsMZAUaGhtEIrWQ2dns5d8T6Y1WhBSRBy7LeYxj60SOmmjzqopNs3RBEFg15n_eHolu38y2943vOIMfHGd6252aqHKNDyP0CstyAC2fTVyA8OSJ9Xd8L__GvJwGa7PfQ6xRIp5aUNWPcIeIWUpIJ6kYHQQvh70fV8iz8JwqqCEbjMvQmnI2KxpDTSWaUj5-7UBPomfKp1LCAtLPgNQmZ2MYqDyW5S5sG9DD1EyFREFPsJvzBmna3xeMgbgCcPZj4Ck4KDI_1YcHJETZsode1B9ofh8K1WJu54arEBfEeKtlHptOEve7EmqrPMoZiUhpNAzUPYHzUPxl7rwsAvskrbl9VZwzFXjjPpXwlFg_kjgES7CKd02qOJUbxKa_ofK0KgXzdR2-dIOhfXAHsCSKMbyOFZAMyIKfbBxcy1Jhx0B-XOZa2Mif6xPjo74yOX6cXjcUvbFjFbeXbDHOSkG72swIc748dXsCNcZBSK-KcDQO5C0QEyYM2e7a2CpLQ0IEKb4wlPFOCRpfp_pUJD5hNTxFFhRpJYpTjkH4WJUR0blGZAVtvBmAXmCXt5iXsvg829KQymNf0Jg3HK4xNneqRTcuNcAo56AOXHfJ-C8HnqvDslzGZNAKvGvQ9p5GJCHUlhuRRM1OvrFiv1G2edkoE7dn16N3cQSPHpnMlW4haAlKoEIu8_72pt11UeWdOuTGxitwqitGfZojBE13Q3cAh0ZBcBrp7hNrui5BYt6PwPVHi4VA8YuFeHp9I-CgsGgEFIgVtJCdgiHuN2kHqQTug0fm67nTFyO8Y9aHZdoDVbru7OURErjaEMoqtxev6QnkFBlLglVL6t7ii-TxRaT7HCjwGe-pEbV]--></g></svg>