<?xml version="1.0" encoding="us-ascii" standalone="no"?><svg xmlns="http://www.w3.org/2000/svg" xmlns:xlink="http://www.w3.org/1999/xlink" contentStyleType="text/css" height="1636px" preserveAspectRatio="none" style="width:779px;height:1636px;background:#FFFFFF;" version="1.1" viewBox="0 0 779 1636" width="779px" zoomAndPan="magnify"><defs/><g><!--entity admin--><g id="elem_admin"><ellipse cx="63" cy="1561.5" fill="#F1F1F1" rx="8" ry="8" style="stroke:#181818;stroke-width:0.5;"/><path d="M63,1569.5 L63,1596.5 M50,1577.5 L76,1577.5 M63,1596.5 L50,1611.5 M63,1596.5 L76,1611.5 " fill="none" style="stroke:#181818;stroke-width:0.5;"/><text fill="#000000" font-family="sans-serif" font-size="14" lengthAdjust="spacing" textLength="39" x="43.5" y="1628.1074">Admin</text></g><!--entity cit--><g id="elem_cit"><ellipse cx="63" cy="617.5" fill="#F1F1F1" rx="8" ry="8" style="stroke:#181818;stroke-width:0.5;"/><path d="M63,625.5 L63,652.5 M50,633.5 L76,633.5 M63,652.5 L50,667.5 M63,652.5 L76,667.5 " fill="none" style="stroke:#181818;stroke-width:0.5;"/><text fill="#000000" font-family="sans-serif" font-size="14" lengthAdjust="spacing" textLength="42" x="42" y="684.1074">Citizen</text></g><!--entity ew--><g id="elem_ew"><ellipse cx="63" cy="1201.5" fill="#F1F1F1" rx="8" ry="8" style="stroke:#181818;stroke-width:0.5;"/><path d="M63,1209.5 L63,1236.5 M50,1217.5 L76,1217.5 M63,1236.5 L50,1251.5 M63,1236.5 L76,1251.5 " fill="none" style="stroke:#181818;stroke-width:0.5;"/><text fill="#000000" font-family="sans-serif" font-size="14" lengthAdjust="spacing" textLength="86" x="20" y="1268.1074">Event Worker</text></g><!--entity em--><g id="elem_em"><ellipse cx="63" cy="1393.5" fill="#F1F1F1" rx="8" ry="8" style="stroke:#181818;stroke-width:0.5;"/><path d="M63,1401.5 L63,1428.5 M50,1409.5 L76,1409.5 M63,1428.5 L50,1443.5 M63,1428.5 L76,1443.5 " fill="none" style="stroke:#181818;stroke-width:0.5;"/><text fill="#000000" font-family="sans-serif" font-size="14" lengthAdjust="spacing" textLength="96" x="15" y="1460.1074">Event Manager</text></g><!--entity uu--><g id="elem_uu"><ellipse cx="63" cy="42.5" fill="#F1F1F1" rx="8" ry="8" style="stroke:#181818;stroke-width:0.5;"/><path d="M63,50.5 L63,77.5 M50,58.5 L76,58.5 M63,77.5 L50,92.5 M63,77.5 L76,92.5 " fill="none" style="stroke:#181818;stroke-width:0.5;"/><text fill="#000000" font-family="sans-serif" font-size="14" lengthAdjust="spacing" textLength="114" x="6" y="109.1074">Unregistered User</text></g><g id="elem_US1"><ellipse cx="350.244" cy="28.6488" fill="#F1F1F1" rx="101.244" ry="22.6488" style="stroke:#181818;stroke-width:0.5;"/><text fill="#000000" font-family="sans-serif" font-size="14" lengthAdjust="spacing" textLength="161" x="268.9994" y="32.7223">US1 - Citizen Registration</text></g><g id="elem_US2"><ellipse cx="350.1144" cy="118.7229" fill="#F1F1F1" rx="149.1144" ry="32.2229" style="stroke:#181818;stroke-width:0.5;"/><text fill="#000000" font-family="sans-serif" font-size="14" lengthAdjust="spacing" textLength="265" x="217.6144" y="122.5197">US2 - Event Manager/Worker Registration</text></g><g id="elem_US3"><ellipse cx="350.115" cy="1592.423" fill="#F1F1F1" rx="170.115" ry="36.423" style="stroke:#181818;stroke-width:0.5;"/><text fill="#000000" font-family="sans-serif" font-size="14" lengthAdjust="spacing" textLength="309" x="195.615" y="1596.2199">US3 - Admin Approval for Event Manager/Worker</text></g><g id="elem_US4"><ellipse cx="676.5275" cy="1192.7055" fill="#F1F1F1" rx="96.5275" ry="21.7055" style="stroke:#181818;stroke-width:0.5;"/><text fill="#000000" font-family="sans-serif" font-size="14" lengthAdjust="spacing" textLength="150" x="599.3422" y="1197.2628">US4 - Login and Logout</text></g><g id="elem_US5"><ellipse cx="350.0532" cy="1424.3106" fill="#F1F1F1" rx="89.5532" ry="20.3106" style="stroke:#181818;stroke-width:0.5;"/><text fill="#000000" font-family="sans-serif" font-size="14" lengthAdjust="spacing" textLength="133" x="280.5532" y="1429.1144">US5 - Event Creation</text></g><g id="elem_US6"><ellipse cx="350.0317" cy="282.6063" fill="#F1F1F1" rx="116.0317" ry="25.6063" style="stroke:#181818;stroke-width:0.5;"/><text fill="#000000" font-family="sans-serif" font-size="14" lengthAdjust="spacing" textLength="194" x="253.0317" y="286.4032">US6 - Mark Presence on Event</text></g><g id="elem_US7"><ellipse cx="349.7523" cy="1500.6505" fill="#F1F1F1" rx="88.7523" ry="20.1505" style="stroke:#181818;stroke-width:0.5;"/><text fill="#000000" font-family="sans-serif" font-size="14" lengthAdjust="spacing" textLength="131" x="281.2523" y="1505.4542">US7 - Event Deletion</text></g><g id="elem_US9"><ellipse cx="349.7523" cy="363.6505" fill="#F1F1F1" rx="88.7523" ry="20.1505" style="stroke:#181818;stroke-width:0.5;"/><text fill="#000000" font-family="sans-serif" font-size="14" lengthAdjust="spacing" textLength="131" x="281.2523" y="368.4542">US9 - Search Events</text></g><g id="elem_US14"><ellipse cx="349.8442" cy="442.5688" fill="#F1F1F1" rx="108.3442" ry="24.0688" style="stroke:#181818;stroke-width:0.5;"/><text fill="#000000" font-family="sans-serif" font-size="14" lengthAdjust="spacing" textLength="177" x="261.3442" y="446.3657">US14 - Praise Event Worker</text></g><g id="elem_US16"><ellipse cx="350.0249" cy="528.705" fill="#F1F1F1" rx="121.5249" ry="26.705" style="stroke:#181818;stroke-width:0.5;"/><text fill="#000000" font-family="sans-serif" font-size="14" lengthAdjust="spacing" textLength="206" x="247.0249" y="532.5019">US16 - Redirect to event website</text></g><g id="elem_US18"><ellipse cx="349.9261" cy="609.2852" fill="#F1F1F1" rx="84.4261" ry="19.2852" style="stroke:#181818;stroke-width:0.5;"/><text fill="#000000" font-family="sans-serif" font-size="14" lengthAdjust="spacing" textLength="120" x="286.9261" y="614.0889">US18 - Gain Points</text></g><g id="elem_US10"><ellipse cx="350.1807" cy="686.7361" fill="#F1F1F1" rx="101.6807" ry="22.7361" style="stroke:#181818;stroke-width:0.5;"/><text fill="#000000" font-family="sans-serif" font-size="14" lengthAdjust="spacing" textLength="162" x="268.5603" y="690.7649">US10 - View Leaderboard</text></g><g id="elem_US17"><ellipse cx="350.0884" cy="776.3177" fill="#F1F1F1" rx="149.5884" ry="32.3177" style="stroke:#181818;stroke-width:0.5;"/><text fill="#000000" font-family="sans-serif" font-size="14" lengthAdjust="spacing" textLength="266" x="217.0884" y="780.1146">US17 - Exchange points for ticket discount</text></g><g id="elem_US8"><ellipse cx="350.0921" cy="863.5184" fill="#F1F1F1" rx="85.5921" ry="19.5184" style="stroke:#181818;stroke-width:0.5;"/><text fill="#000000" font-family="sans-serif" font-size="14" lengthAdjust="spacing" textLength="123" x="285.5921" y="868.3221">US8 - Check Profile</text></g><g id="elem_US11"><ellipse cx="350.1212" cy="1271.4242" fill="#F1F1F1" rx="115.1212" ry="25.4242" style="stroke:#181818;stroke-width:0.5;"/><text fill="#000000" font-family="sans-serif" font-size="14" lengthAdjust="spacing" textLength="192" x="254.1212" y="1275.2211">US11 - Update Problem Status</text></g><g id="elem_US12"><ellipse cx="349.9414" cy="940.3883" fill="#F1F1F1" rx="99.9414" ry="22.3883" style="stroke:#181818;stroke-width:0.5;"/><text fill="#000000" font-family="sans-serif" font-size="14" lengthAdjust="spacing" textLength="158" x="269.8178" y="944.5954">US12 - Report a Problem</text></g><g id="elem_US13"><ellipse cx="350.1131" cy="1027.5226" fill="#F1F1F1" rx="133.1131" ry="29.0226" style="stroke:#181818;stroke-width:0.5;"/><text fill="#000000" font-family="sans-serif" font-size="14" lengthAdjust="spacing" textLength="231" x="234.6131" y="1031.3195">US13 - React to a Reported Problem</text></g><g id="elem_US15"><ellipse cx="350.2422" cy="1115.7484" fill="#F1F1F1" rx="109.2422" ry="24.2484" style="stroke:#181818;stroke-width:0.5;"/><text fill="#000000" font-family="sans-serif" font-size="14" lengthAdjust="spacing" textLength="179" x="260.7422" y="1119.5453">US15 - View Event Problems</text></g><!--link admin to US3--><g id="link_admin_US3"><path d="M82.7,1592.5 C103.81,1592.5 134.4,1592.5 173.8,1592.5 " fill="none" id="admin-to-US3" style="stroke:#181818;stroke-width:1.0;"/><polygon fill="#181818" points="179.8,1592.5,170.8,1588.5,174.8,1592.5,170.8,1596.5,179.8,1592.5" style="stroke:#181818;stroke-width:1.0;"/></g><!--link uu to US1--><g id="link_uu_US1"><path d="M120.31,64.61 C162.24,57.99 214.2035,49.7861 261.2435,42.3561 " fill="none" id="uu-to-US1" style="stroke:#181818;stroke-width:1.0;"/><polygon fill="#181818" points="267.17,41.42,257.6561,38.8731,262.2312,42.2001,258.9043,46.7752,267.17,41.42" style="stroke:#181818;stroke-width:1.0;"/></g><!--link uu to US2--><g id="link_uu_US2"><path d="M120.31,82.39 C151.53,87.32 185.6835,92.7137 223.5335,98.6937 " fill="none" id="uu-to-US2" style="stroke:#181818;stroke-width:1.0;"/><polygon fill="#181818" points="229.46,99.63,221.1945,94.2745,224.5213,98.8497,219.946,102.1765,229.46,99.63" style="stroke:#181818;stroke-width:1.0;"/></g><!--link cit to US4--><g id="link_cit_US4"><path d="M69.17,608.98 C82.31,515.38 120.24,284.67 180,239.5 C300.55,148.38 404.87,141.63 520,239.5 C667.53,364.9 675.424,1033.95 675.554,1164.6 " fill="none" id="cit-to-US4" style="stroke:#181818;stroke-width:1.0;"/><polygon fill="#181818" points="675.56,1170.6,679.551,1161.596,675.555,1165.6,671.551,1161.604,675.56,1170.6" style="stroke:#181818;stroke-width:1.0;"/></g><!--link ew to US4--><g id="link_ew_US4"><path d="M106.03,1229.75 C203.98,1223.34 443.3028,1207.6918 577.7828,1198.8918 " fill="none" id="ew-to-US4" style="stroke:#181818;stroke-width:1.0;"/><polygon fill="#181818" points="583.77,1198.5,574.528,1195.0962,578.7807,1198.8265,575.0504,1203.0791,583.77,1198.5" style="stroke:#181818;stroke-width:1.0;"/></g><!--link em to US4--><g id="link_em_US4"><path d="M111.06,1407.81 C132.01,1400.71 157.08,1392.66 180,1386.5 C329.17,1346.4 380.05,1379.87 520,1314.5 C574.41,1289.09 622.8268,1245.632 650.7268,1218.002 " fill="none" id="em-to-US4" style="stroke:#181818;stroke-width:1.0;"/><polygon fill="#181818" points="654.99,1213.78,645.7805,1217.2708,651.4373,1217.2983,651.4098,1222.9551,654.99,1213.78" style="stroke:#181818;stroke-width:1.0;"/></g><!--link em to US5--><g id="link_em_US5"><path d="M111.06,1424.5 C151.54,1424.5 205.02,1424.5 254.39,1424.5 " fill="none" id="em-to-US5" style="stroke:#181818;stroke-width:1.0;"/><polygon fill="#181818" points="260.39,1424.5,251.39,1420.5,255.39,1424.5,251.39,1428.5,260.39,1424.5" style="stroke:#181818;stroke-width:1.0;"/></g><!--link em to US7--><g id="link_em_US7"><path d="M111.1,1441.06 C132.05,1448.13 157.12,1456.19 180,1462.5 C213.78,1471.81 245.9431,1479.2533 277.3631,1485.9833 " fill="none" id="em-to-US7" style="stroke:#181818;stroke-width:1.0;"/><polygon fill="#181818" points="283.23,1487.24,275.2674,1481.4437,278.3409,1486.1928,273.5918,1489.2663,283.23,1487.24" style="stroke:#181818;stroke-width:1.0;"/></g><!--link ew to US11--><g id="link_ew_US11"><path d="M106.05,1238.25 C144.3,1243.49 196.2354,1250.5963 245.9154,1257.3963 " fill="none" id="ew-to-US11" style="stroke:#181818;stroke-width:1.0;"/><polygon fill="#181818" points="251.86,1258.21,243.4856,1253.0264,246.9062,1257.5319,242.4007,1260.9525,251.86,1258.21" style="stroke:#181818;stroke-width:1.0;"/></g><!--link cit to US6--><g id="link_cit_US6"><path d="M66.69,608.9 C73.48,540.9 97.28,402.01 180,326.5 C197.8,310.25 215.0782,301.4892 238.3882,294.8692 " fill="none" id="cit-to-US6" style="stroke:#181818;stroke-width:1.0;"/><polygon fill="#181818" points="244.16,293.23,234.4096,291.8409,239.3502,294.596,236.5951,299.5366,244.16,293.23" style="stroke:#181818;stroke-width:1.0;"/></g><!--link cit to US9--><g id="link_cit_US9"><path d="M71.33,608.85 C83.68,553.64 114.06,454.44 180,401.5 C203.33,382.77 228.1523,373.9084 257.0023,368.7884 " fill="none" id="cit-to-US9" style="stroke:#181818;stroke-width:1.0;"/><polygon fill="#181818" points="262.91,367.74,253.3495,365.3742,257.9869,368.6137,254.7474,373.2511,262.91,367.74" style="stroke:#181818;stroke-width:1.0;"/></g><!--link cit to US14--><g id="link_cit_US14"><path d="M81.8,608.82 C100.77,571.12 134.36,515.68 180,484.5 C201.84,469.58 222.6689,461.3634 248.2889,455.1534 " fill="none" id="cit-to-US14" style="stroke:#181818;stroke-width:1.0;"/><polygon fill="#181818" points="254.12,453.74,244.431,451.9727,249.2607,454.9178,246.3155,459.7475,254.12,453.74" style="stroke:#181818;stroke-width:1.0;"/></g><!--link cit to US16--><g id="link_cit_US16"><path d="M84.19,632.31 C106.45,615.19 143.9,588.5 180,572.5 C204.81,561.5 227.1055,554.2904 253.1855,547.6504 " fill="none" id="cit-to-US16" style="stroke:#181818;stroke-width:1.0;"/><polygon fill="#181818" points="259,546.17,249.2913,544.5142,254.1546,547.4037,251.2652,552.2669,259,546.17" style="stroke:#181818;stroke-width:1.0;"/></g><!--link cit to US18--><g id="link_cit_US18"><path d="M84.04,645.76 C123.45,640.37 206.7955,628.9641 270.8355,620.1941 " fill="none" id="cit-to-US18" style="stroke:#181818;stroke-width:1.0;"/><polygon fill="#181818" points="276.78,619.38,267.3205,616.6381,271.8262,620.0584,268.4059,624.5641,276.78,619.38" style="stroke:#181818;stroke-width:1.0;"/></g><!--link cit to US10--><g id="link_cit_US10"><path d="M84.04,651.17 C120.59,656.05 194.1327,665.8465 256.5627,674.1765 " fill="none" id="cit-to-US10" style="stroke:#181818;stroke-width:1.0;"/><polygon fill="#181818" points="262.51,674.97,254.1181,669.8148,257.5539,674.3087,253.06,677.7445,262.51,674.97" style="stroke:#181818;stroke-width:1.0;"/></g><!--link cit to US17--><g id="link_cit_US17"><path d="M84.22,664.92 C106.51,682.31 143.99,709.55 180,726.5 C201.73,736.73 220.2911,743.6292 243.5311,750.7192 " fill="none" id="cit-to-US17" style="stroke:#181818;stroke-width:1.0;"/><polygon fill="#181818" points="249.27,752.47,241.8289,746.0179,244.4876,751.011,239.4945,753.6697,249.27,752.47" style="stroke:#181818;stroke-width:1.0;"/></g><!--link cit to US8--><g id="link_cit_US8"><path d="M79.05,688 C96.82,729.13 130.38,792.23 180,826.5 C205.46,844.08 231.8738,852.5009 261.4238,857.4909 " fill="none" id="cit-to-US8" style="stroke:#181818;stroke-width:1.0;"/><polygon fill="#181818" points="267.34,858.49,259.1317,853.0473,262.4098,857.6575,257.7996,860.9356,267.34,858.49" style="stroke:#181818;stroke-width:1.0;"/></g><!--link cit to US12--><g id="link_cit_US12"><path d="M71.06,688.36 C83.15,744.45 113.29,845.9 180,900.5 C201,917.69 222.2608,926.4376 248.6008,932.2476 " fill="none" id="cit-to-US12" style="stroke:#181818;stroke-width:1.0;"/><polygon fill="#181818" points="254.46,933.54,246.5329,927.6953,249.5774,932.463,244.8097,935.5075,254.46,933.54" style="stroke:#181818;stroke-width:1.0;"/></g><!--link cit to US13--><g id="link_cit_US13"><path d="M66.33,688.05 C72.58,757.48 95.58,901.38 180,980.5 C195.67,995.18 209.8421,1003.4004 230.3921,1010.4204 " fill="none" id="cit-to-US13" style="stroke:#181818;stroke-width:1.0;"/><polygon fill="#181818" points="236.07,1012.36,228.8463,1005.6654,231.3385,1010.7437,226.2602,1013.2359,236.07,1012.36" style="stroke:#181818;stroke-width:1.0;"/></g><!--link cit to US15--><g id="link_cit_US15"><path d="M69.58,688.04 C83.77,783.01 124.09,1020.12 180,1074.5 C197.75,1091.76 215.6589,1100.6761 239.6989,1106.8561 " fill="none" id="cit-to-US15" style="stroke:#181818;stroke-width:1.0;"/><polygon fill="#181818" points="245.51,1108.35,237.7893,1102.2352,240.6675,1107.1051,235.7975,1109.9833,245.51,1108.35" style="stroke:#181818;stroke-width:1.0;"/></g><!--SRC=[RPFDRjim383lUWh2f-qGB7QIfha4AD9YbnO86cGxCpRZ274iGvQROKy_YP9iTQXFfFZndsxeRC0eqBA-6AYafj98rGgHFLKtsMQ0FQ2JHBQJHlub_rHA8xAN3seD_5RwIffVwHuVtx35EhxUH7PiDTMoDwIfWcCVBCCWnBVZ8OSPXE3mpfX6LyHtnrYpOmhBV0hzm-Vzog5m3Wlhm2t0KzTfzO4Dd9N-CaPmMpYtfNLxLRLrmxPoaXfCi2-TVJNMiTEK9bqvwuErlg6-mbvJJsr9e5gF1-h1KUinnZCrbCHOE-l6MW-4khnug0_63O_ArRVNA7k2TFnnL5nZxifu9xzCjrnYyawdNXgAA9UIFrhq9zfszqfEkV97DiwjyPUaExmILgHF2dKLYJaJtCgVye9jJT1n21wpaUMLt3trfHh6xdDkqANSNQXqKr9dsSIAV4vt3CUkGaFEV6he1WU3PXXButF82swnKze0HZ0IlFzymGJw2M20xVNz1_FMyrNir0yrC6FEbR0V_mOmcstvLiGm13cVn488-sTOXRMbi04d-JR9NjdosOpYMdX-wxkCeRPyDfEyIMIxxqH9ARl1H9cdoZfHFb55gYnIXVl_1m00]--></g></svg>